<svg width="128" height="40" viewBox="0 0 128 40" fill="none" xmlns="http://www.w3.org/2000/svg">
<path d="M55.5514 39.6747V21.6641H38.4907V39.6747H43.8482V26.4144H50.1865V39.6747H55.5514Z" fill="#3C444B"/>
<path d="M67.277 27.8441C67.277 28.3131 67.1209 28.661 66.8163 28.8955C66.5042 29.13 66.1252 29.2435 65.6645 29.2435H62.2687V26.4069H65.6645C66.1252 26.4069 66.5116 26.5279 66.8163 26.7548C67.1209 26.9969 67.277 27.36 67.277 27.8441ZM72.7162 27.8441C72.7162 26.9969 72.5824 26.2026 72.3075 25.4538C72.0326 24.7049 71.6239 24.0468 71.0889 23.4795C70.5465 22.9122 69.8851 22.4659 69.0826 22.1406C68.2875 21.8153 67.3736 21.6565 66.3481 21.6565H56.9038V39.6671H62.2613V33.9939H66.3481C67.3736 33.9939 68.2875 33.835 69.0826 33.5097C69.8777 33.1845 70.5465 32.7382 71.0889 32.1709C71.6313 31.6035 72.0326 30.953 72.3075 30.2117C72.575 29.4855 72.7162 28.6913 72.7162 27.8441Z" fill="#3C444B"/>
<path d="M94.8965 18.2678L87.9191 8.62331L94.5993 0.249634H88.0529L83.4087 7.00455V0.249634H78.0513V18.2678H83.4087V13.2678L84.3896 11.9213L88.3724 18.2678H94.8965Z" fill="#A6093D"/>
<path d="M104.906 18.1316C105.79 17.8064 106.555 17.3903 107.202 16.8911C107.848 16.3843 108.383 15.8169 108.822 15.1891C109.253 14.5613 109.602 13.9486 109.869 13.351L105.255 11.1876C105.151 11.5507 104.987 11.8835 104.764 12.2012C104.542 12.5189 104.281 12.7912 103.984 13.0257C103.687 13.2602 103.345 13.4493 102.974 13.593C102.602 13.7368 102.223 13.8124 101.829 13.8124C101.19 13.8124 100.611 13.6989 100.076 13.4644C99.5481 13.23 99.0874 12.9123 98.7085 12.5038C98.3295 12.0953 98.0397 11.6188 97.8317 11.0741C97.631 10.5219 97.527 9.93949 97.527 9.30409C97.527 8.67625 97.631 8.08623 97.8317 7.53404C98.0323 6.98185 98.3295 6.5053 98.7085 6.10439C99.0874 5.69592 99.5407 5.37822 100.076 5.14372C100.603 4.90923 101.19 4.79576 101.829 4.79576C102.216 4.79576 102.602 4.87141 102.974 5.01513C103.345 5.15885 103.68 5.34796 103.984 5.58245C104.281 5.81694 104.549 6.09682 104.764 6.42209C104.987 6.74735 105.151 7.08018 105.255 7.42058L109.869 5.23449C109.602 4.62179 109.253 4.00151 108.822 3.37368C108.391 2.74584 107.841 2.17852 107.187 1.68684C106.533 1.19516 105.768 0.786687 104.891 0.468986C104.014 0.151286 102.996 0 101.829 0C100.447 0 99.1617 0.226929 97.9728 0.673222C96.7765 1.12708 95.7511 1.75492 94.8817 2.57943C94.0123 3.39637 93.3361 4.37973 92.8383 5.52194C92.3404 6.66415 92.0952 7.92738 92.0952 9.31921C92.0952 10.7035 92.3404 11.9667 92.8383 13.1165C93.3361 14.2587 94.0123 15.2421 94.8817 16.059C95.7511 16.8759 96.7765 17.5113 97.9728 17.9652C99.1692 18.4191 100.455 18.6384 101.829 18.6384C102.996 18.6157 104.021 18.4569 104.906 18.1316Z" fill="#A6093D"/>
<path d="M116.119 18.2678L122.643 8.05599V18.2678H128V0.249634H122.487L116.334 9.86386V0.249634H110.969V18.2678H116.119Z" fill="#A6093D"/>
<path d="M28.2512 39.6747V16.3767L14.1256 34.3495L0 16.3767V39.6747H28.2512Z" fill="#3C444B"/>
<path d="M14.1256 18.2224L0 0.249634H28.2438L14.1256 18.2224Z" fill="#A6093D"/>
<path d="M87.2805 30.6808C87.2805 31.3086 87.1764 31.8986 86.9758 32.4508C86.7752 33.003 86.4854 33.4796 86.1138 33.8805C85.7423 34.289 85.2965 34.6067 84.7763 34.8412C84.2562 35.0756 83.6766 35.1891 83.0376 35.1891C82.3985 35.1891 81.8189 35.0756 81.2988 34.8412C80.7787 34.6067 80.3328 34.289 79.9613 33.8805C79.5898 33.472 79.3 32.9955 79.0993 32.4508C78.8987 31.8986 78.7947 31.3086 78.7947 30.6808C78.7947 30.053 78.8987 29.4629 79.0993 28.9107C79.3 28.3585 79.5898 27.882 79.9613 27.4811C80.3328 27.0726 80.7787 26.7549 81.2988 26.5204C81.8189 26.2859 82.3985 26.1725 83.0376 26.1725C83.6766 26.1725 84.2562 26.2935 84.7763 26.5204C85.2965 26.7549 85.7423 27.0726 86.1138 27.4811C86.4854 27.8896 86.7752 28.3661 86.9758 28.9107C87.1764 29.4629 87.2805 30.053 87.2805 30.6808ZM92.7197 30.6808C92.7197 29.2965 92.4745 28.0333 91.9766 26.8835C91.4788 25.7413 90.8026 24.7579 89.9332 23.941C89.0638 23.1241 88.0384 22.4887 86.8569 22.0348C85.6754 21.5885 84.3974 21.3616 83.0376 21.3616C81.6778 21.3616 80.3997 21.5885 79.2182 22.0348C78.0368 22.4887 77.0039 23.1165 76.1419 23.941C75.2726 24.7579 74.5964 25.7413 74.0985 26.8835C73.6007 28.0257 73.3555 29.289 73.3555 30.6808C73.3555 32.0651 73.6007 33.3283 74.0985 34.4781C74.5964 35.6278 75.2726 36.6036 76.1419 37.4206C77.0113 38.2375 78.0368 38.8729 79.2182 39.3268C80.3997 39.7731 81.6778 40 83.0376 40C84.3974 40 85.6754 39.7731 86.8569 39.3268C88.0384 38.8729 89.0712 38.2451 89.9332 37.4206C90.8026 36.6036 91.4788 35.6203 91.9766 34.4781C92.4745 33.3359 92.7197 32.0651 92.7197 30.6808Z" fill="#3C444B"/>
<path d="M59.4971 18.2678V0.249634H52.0962L48.9976 8.89563L45.8916 0.249634H38.4907V18.2678H43.8482V7.43572L47.8013 18.2678H50.1865L54.1396 7.43572V18.2678H59.4971Z" fill="#A6093D"/>
<path d="M70.6283 11.407H67.1285L68.8821 5.59759L70.6283 11.407ZM78.7723 18.2678L72.2407 0.249634H65.5011L58.9771 18.2602H65.0553L65.6943 16.1574H72.0624L72.7014 18.2602H78.7723V18.2678Z" fill="#A6093D"/>
</svg>
