<svg width="128" height="40" viewBox="0 0 128 40" fill="none" xmlns="http://www.w3.org/2000/svg">
<path d="M55.5512 39.6747V21.6641H38.4905V39.6747H43.848V26.4144H50.1863V39.6747H55.5512Z" fill="white"/>
<path d="M67.2767 27.8441C67.2767 28.3131 67.1207 28.661 66.816 28.8955C66.5039 29.13 66.125 29.2435 65.6643 29.2435H62.2685V26.4069H65.6643C66.125 26.4069 66.5114 26.5279 66.816 26.7548C67.1207 26.9969 67.2767 27.36 67.2767 27.8441ZM72.7159 27.8441C72.7159 26.9969 72.5822 26.2026 72.3073 25.4538C72.0323 24.7049 71.6236 24.0468 71.0886 23.4795C70.5462 22.9122 69.8849 22.4659 69.0824 22.1406C68.2873 21.8153 67.3733 21.6565 66.3479 21.6565H56.9036V39.6671H62.2611V33.9939H66.3479C67.3733 33.9939 68.2873 33.835 69.0824 33.5097C69.8774 33.1845 70.5462 32.7382 71.0886 32.1709C71.6311 31.6035 72.0323 30.953 72.3073 30.2117C72.5748 29.4855 72.7159 28.6913 72.7159 27.8441Z" fill="white"/>
<path d="M94.8965 18.2678L87.9191 8.62331L94.5993 0.249634H88.0529L83.4088 7.00455V0.249634H78.0513V18.2678H83.4088V13.2678L84.3896 11.9213L88.3724 18.2678H94.8965Z" fill="white"/>
<path d="M104.906 18.1316C105.79 17.8064 106.555 17.3903 107.202 16.8911C107.848 16.3843 108.383 15.8169 108.822 15.1891C109.253 14.5613 109.602 13.9486 109.869 13.351L105.255 11.1876C105.151 11.5507 104.987 11.8835 104.764 12.2012C104.542 12.5189 104.281 12.7912 103.984 13.0257C103.687 13.2602 103.345 13.4493 102.974 13.593C102.602 13.7368 102.223 13.8124 101.829 13.8124C101.19 13.8124 100.611 13.6989 100.076 13.4644C99.5481 13.23 99.0874 12.9123 98.7085 12.5038C98.3295 12.0953 98.0397 11.6188 97.8317 11.0741C97.631 10.5219 97.527 9.93949 97.527 9.30408C97.527 8.67625 97.631 8.08623 97.8317 7.53404C98.0323 6.98185 98.3295 6.5053 98.7085 6.10439C99.0874 5.69592 99.5407 5.37821 100.076 5.14372C100.603 4.90923 101.19 4.79576 101.829 4.79576C102.216 4.79576 102.602 4.87141 102.974 5.01513C103.345 5.15885 103.68 5.34796 103.984 5.58245C104.281 5.81694 104.549 6.09682 104.764 6.42209C104.987 6.74735 105.151 7.08018 105.255 7.42058L109.869 5.23449C109.602 4.62179 109.253 4.00151 108.822 3.37368C108.391 2.74584 107.841 2.17852 107.187 1.68684C106.533 1.19516 105.768 0.786687 104.891 0.468986C104.014 0.151286 102.996 0 101.829 0C100.447 0 99.1617 0.226929 97.9728 0.673222C96.7765 1.12708 95.7511 1.75492 94.8817 2.57942C94.0123 3.39637 93.3361 4.37973 92.8383 5.52194C92.3404 6.66414 92.0952 7.92738 92.0952 9.31921C92.0952 10.7035 92.3404 11.9667 92.8383 13.1165C93.3361 14.2587 94.0123 15.2421 94.8817 16.059C95.7511 16.8759 96.7765 17.5113 97.9728 17.9652C99.1692 18.4191 100.455 18.6384 101.829 18.6384C102.996 18.6157 104.021 18.4569 104.906 18.1316Z" fill="white"/>
<path d="M116.118 18.2678L122.643 8.05599V18.2678H128V0.249634H122.486L116.334 9.86386V0.249634H110.969V18.2678H116.118Z" fill="white"/>
<path d="M28.2512 39.6747V16.3767L14.1256 34.3495L0 16.3767V39.6747H28.2512Z" fill="white"/>
<path d="M14.1256 18.2224L0 0.249634H28.2438L14.1256 18.2224Z" fill="white"/>
<path d="M87.2802 30.6808C87.2802 31.3086 87.1762 31.8986 86.9756 32.4508C86.7749 33.003 86.4851 33.4796 86.1136 33.8805C85.7421 34.289 85.2962 34.6067 84.7761 34.8411C84.2559 35.0756 83.6764 35.1891 83.0373 35.1891C82.3983 35.1891 81.8187 35.0756 81.2986 34.8411C80.7784 34.6067 80.3326 34.289 79.961 33.8805C79.5895 33.472 79.2997 32.9955 79.0991 32.4508C78.8985 31.8986 78.7944 31.3086 78.7944 30.6808C78.7944 30.0529 78.8985 29.4629 79.0991 28.9107C79.2997 28.3585 79.5895 27.882 79.961 27.4811C80.3326 27.0726 80.7784 26.7549 81.2986 26.5204C81.8187 26.2859 82.3983 26.1725 83.0373 26.1725C83.6764 26.1725 84.2559 26.2935 84.7761 26.5204C85.2962 26.7549 85.7421 27.0726 86.1136 27.4811C86.4851 27.8896 86.7749 28.3661 86.9756 28.9107C87.1762 29.4629 87.2802 30.0529 87.2802 30.6808ZM92.7194 30.6808C92.7194 29.2965 92.4742 28.0333 91.9764 26.8835C91.4785 25.7413 90.8023 24.7579 89.9329 23.941C89.0636 23.1241 88.0381 22.4887 86.8567 22.0348C85.6752 21.5885 84.3971 21.3616 83.0373 21.3616C81.6775 21.3616 80.3995 21.5885 79.218 22.0348C78.0365 22.4887 77.0037 23.1165 76.1417 23.941C75.2723 24.7579 74.5961 25.7413 74.0983 26.8835C73.6004 28.0257 73.3552 29.289 73.3552 30.6808C73.3552 32.0651 73.6004 33.3283 74.0983 34.4781C74.5961 35.6278 75.2723 36.6036 76.1417 37.4206C77.0111 38.2375 78.0365 38.8729 79.218 39.3268C80.3995 39.7731 81.6775 40 83.0373 40C84.3971 40 85.6752 39.7731 86.8567 39.3268C88.0381 38.8729 89.071 38.2451 89.9329 37.4206C90.8023 36.6036 91.4785 35.6203 91.9764 34.4781C92.4742 33.3359 92.7194 32.0651 92.7194 30.6808Z" fill="white"/>
<path d="M59.4969 18.2678V0.249634H52.096L48.9974 8.89563L45.8914 0.249634H38.4905V18.2678H43.848V7.43572L47.8011 18.2678H50.1863L54.1394 7.43572V18.2678H59.4969Z" fill="white"/>
<path d="M70.628 11.407H67.1282L68.8818 5.59759L70.628 11.407ZM78.772 18.2678L72.2405 0.249634H65.5009L58.9768 18.2602H65.0551L65.6941 16.1573H72.0621L72.7012 18.2602H78.772V18.2678Z" fill="white"/>
</svg>
