<svg xmlns="http://www.w3.org/2000/svg" width="139.995" height="44"><g fill="#FFF"><path d="M42.096 43.644h5.86v-14.58h6.934v14.58h5.861V23.838H42.096zM77.74 25.842h.001c-.59-.624-1.32-1.114-2.19-1.47-.87-.356-1.867-.534-2.989-.534H62.233v19.805h5.86v-6.237h4.467c1.122 0 2.117-.177 2.989-.534.872-.356 1.6-.845 2.19-1.47a6.246 6.246 0 0 0 1.335-2.153 7.478 7.478 0 0 0 .45-2.612 7.64 7.64 0 0 0-.45-2.628 6.208 6.208 0 0 0-1.334-2.167zm-4.669 5.954c-.34.257-.76.386-1.262.386h-3.714v-3.118h3.714c.502 0 .923.129 1.262.386.34.257.507.653.507 1.188 0 .516-.171.901-.507 1.158zM0 18.024v25.62h30.894v-25.62L15.447 37.785z"/><path d="M15.447 20.058L30.894.297H0zM133.96.297l-6.731 10.571V.297h-5.86v19.805h5.629l7.137-11.224v11.224h5.86V.297zM114.574 13.436a4.145 4.145 0 0 1-.857.906c-.336.261-.705.47-1.101.623a3.403 3.403 0 0 1-1.249.238 4.688 4.688 0 0 1-1.915-.386 4.539 4.539 0 0 1-1.495-1.055 4.604 4.604 0 0 1-.957-1.574 5.564 5.564 0 0 1-.334-1.944A5.6 5.6 0 0 1 107 8.3c.21-.584.535-1.119.957-1.574l-.001.003c.421-.449.93-.808 1.495-1.055a4.672 4.672 0 0 1 1.915-.386c.428.001.851.081 1.249.238.396.153.767.363 1.101.623a4.1 4.1 0 0 1 .857.921c.232.338.414.708.538 1.099l5.048-2.406a12.305 12.305 0 0 0-1.145-2.049 8.118 8.118 0 0 0-1.783-1.856c-.716-.544-1.552-.989-2.509-1.336-.959-.35-2.076-.522-3.353-.522-1.508 0-2.916.247-4.221.742-1.305.495-2.432 1.193-3.378 2.094a9.68 9.68 0 0 0-2.234 3.235c-.54 1.257-.813 2.648-.813 4.173s.271 2.915.813 4.172a9.717 9.717 0 0 0 2.234 3.237c.947.901 2.073 1.599 3.378 2.093 1.305.494 2.713.742 4.221.742 1.277 0 2.398-.177 3.366-.534.968-.356 1.803-.813 2.509-1.367a8.448 8.448 0 0 0 1.77-1.87c.443-.636.826-1.313 1.145-2.02l-5.048-2.375a3.74 3.74 0 0 1-.537 1.114z"/><path d="M103.467.297H96.3l-5.077 7.422V.297h-5.86v17.622L79.013.297h-7.37l-6.567 18.225V.297h-8.095l-3.393 9.502L50.192.297h-8.093v19.805h5.86V8.195l4.322 11.907h2.613l4.323-11.907v11.907h11.935l.696-2.316h6.964l.696 2.316h11.718v-5.493l1.073-1.485 4.352 6.978h7.138l-7.631-10.6 7.309-9.205zM73.413 12.559h-.001l1.915-6.384 1.915 6.384h-3.829zM98.358 26.347c-.947-.901-2.069-1.599-3.366-2.094-1.297-.495-2.688-.743-4.177-.743-1.489 0-2.882.247-4.177.743-1.295.495-2.417 1.193-3.365 2.094a9.709 9.709 0 0 0-2.234 3.235c-.542 1.258-.813 2.648-.813 4.173s.269 2.915.813 4.172a9.702 9.702 0 0 0 2.234 3.237c.947.901 2.069 1.599 3.365 2.094 1.295.494 2.689.742 4.177.742 1.491 0 2.882-.248 4.177-.742 1.295-.495 2.417-1.193 3.366-2.094a9.688 9.688 0 0 0 2.234-3.237c.54-1.257.813-2.647.813-4.172s-.272-2.915-.813-4.173a9.665 9.665 0 0 0-2.234-3.235zm-3.235 9.354a4.748 4.748 0 0 1-.943 1.574 4.45 4.45 0 0 1-1.464 1.055 4.564 4.564 0 0 1-1.9.386 4.533 4.533 0 0 1-1.9-.386 4.382 4.382 0 0 1-1.464-1.055 4.728 4.728 0 0 1-.943-1.574 5.564 5.564 0 0 1-.334-1.944 5.6 5.6 0 0 1 .334-1.944 4.728 4.728 0 0 1 .943-1.574c.41-.449.909-.808 1.464-1.055a4.58 4.58 0 0 1 1.9-.386 4.53 4.53 0 0 1 1.9.386 4.374 4.374 0 0 1 1.464 1.055c.414.458.734.993.943 1.574a5.61 5.61 0 0 1 .334 1.944 5.58 5.58 0 0 1-.334 1.944z"/></g></svg>