<?xml version="1.0" standalone="no"?>
<!DOCTYPE svg PUBLIC "-//W3C//DTD SVG 1.1//EN" "http://www.w3.org/Graphics/SVG/1.1/DTD/svg11.dtd" >
<svg xmlns="http://www.w3.org/2000/svg">
<metadata>Generated by IcoMoon</metadata>
<defs>
<font id="icomoon" horiz-adv-x="1024">
<font-face units-per-em="1024" ascent="960" descent="-64" />
<missing-glyph horiz-adv-x="1024" />
<glyph unicode="&#x20;" horiz-adv-x="512" d="" />
<glyph unicode="&#xe900;" glyph-name="Union" d="M614.4 294.4c0-56.553-45.846-102.4-102.4-102.4s-102.4 45.847-102.4 102.4c0 56.553 45.846 102.4 102.4 102.4s102.4-45.847 102.4-102.4zM0 550.4v409.6h1024v-409.6h-102.4v-204.8c0-108.635-43.156-212.816-119.967-289.633-76.817-76.811-180.998-119.967-289.633-119.967-108.633 0-212.816 43.156-289.631 119.967-76.815 76.817-119.969 180.998-119.969 289.633v204.8h-102.4zM398.219 124.114c33.679-22.505 73.275-34.514 113.781-34.514 54.316 0 106.405 21.578 144.816 59.984 38.406 38.411 59.984 90.499 59.984 144.816 0 40.505-12.009 80.1-34.514 113.781-22.505 33.678-54.488 59.928-91.91 75.43-37.424 15.5-78.603 19.557-118.331 11.655-39.727-7.903-76.219-27.408-104.861-56.050s-48.147-65.137-56.049-104.863-3.847-80.907 11.654-118.329c15.501-37.422 41.751-69.404 75.43-91.91zM102.4 652.8h819.2v204.8h-819.2v-204.8z" />
<glyph unicode="&#xe901;" glyph-name="Vector-1" horiz-adv-x="922" d="M768 550.4h-716.8v153.6h-51.2v102.4h51.2v153.6h716.8v-153.6h153.6v-409.6h-409.6v-51.2h102.4v-409.6h-307.2v409.6h102.4v153.6h409.6v204.8h-51.2v-153.6zM512 243.2h-102.4v-204.8h102.4v204.8z" />
<glyph unicode="&#xe902;" glyph-name="Vector-2" d="M645.632 526.336c13.010 22.957 19.886 48.878 19.968 75.264h-102.4c0-10.126-3-20.025-8.627-28.445s-13.624-14.982-22.979-18.857c-9.354-3.875-19.651-4.889-29.583-2.914s-19.055 6.852-26.215 14.012c-7.16 7.161-12.037 16.284-14.012 26.215s-0.962 20.227 2.914 29.582c3.875 9.356 10.438 17.352 18.857 22.978s18.319 8.629 28.445 8.629h51.2v307.2h-102.4v-213.504c-29.96-10.592-55.897-30.216-74.237-56.167s-28.18-56.951-28.163-88.729c0.325-26.258 7.375-51.995 20.48-74.752l-248.32-283.648h-130.56v-307.2h1024v307.2h-130.56l-247.808 283.136zM266.24 243.2l189.44 216.064c36.261-14.822 76.892-14.822 113.152 0l188.928-216.064h-491.52z" />
<glyph unicode="&#xe903;" glyph-name="Vector111" horiz-adv-x="1280" d="M959.885 896h-192.064v64h-512.183c-56.291-0.1-110.98-18.736-155.611-53.028s-76.715-82.328-91.292-136.68c-14.577-54.351-10.833-111.99 10.652-164.001s59.513-95.496 108.205-123.731v-546.56h454.561l-50.578 512h236.246v64h192.064v128h320.115v128h-320.115v128zM255.638 64v384h147.252l38.413-384h-185.665zM831.84 640h-64.019v128h64.019v-128z" />
<glyph unicode="&#xe904;" glyph-name="Vector-31" horiz-adv-x="614" d="M256 89.6v-153.6h102.4v153.6h134.144l121.856 243.712v319.488h-102.4v307.2h-102.4v-307.2h-204.8v307.2h-102.4v-307.2h-102.4v-319.488l121.856-243.712h134.144z" />
<glyph unicode="&#xe905;" glyph-name="Vector-4" horiz-adv-x="1280" d="M128 576h256v128h128v128h-256v128h640v-128h-256v-128h128v-128h192c84.87 0 166.266-33.714 226.272-93.726 60.013-60.012 93.728-141.405 93.728-226.274v-320h-384v256h-128v-128h-384v128h-256v-128h-128v640h128v-128zM512 192h128v384h-128v-384z" />
<glyph unicode="&#xe906;" glyph-name="Path-54" d="M899.689 782.439c80.317-93.113 124.444-212.025 124.311-334.994-0.136-122.97-44.518-241.784-125.043-334.723l-208.092 208.097c26.296 36.989 40.476 81.224 40.586 126.607 0.113 45.384-13.852 89.687-39.967 126.804l208.205 208.208zM848.087 834.262l-208.059-208.062c-37.158 26.706-81.733 41.126-127.493 41.244-45.757 0.118-90.409-14.072-127.706-40.586l-208.093 208.099c93.22 80.769 212.463 125.172 335.803 125.044 123.343-0.128 242.493-44.776 335.547-125.738zM177.578 60.314l208.204 208.207c37.117-26.115 81.418-40.079 126.802-39.967 45.384 0.11 89.615 14.29 126.605 40.589l208.092-208.1c-92.936-80.522-211.748-124.908-334.715-125.043-122.967-0.133-241.876 43.994-334.988 124.314zM125.755 111.916c-80.966 93.051-125.62 212.201-125.755 335.547-0.134 123.343 44.261 242.593 125.024 335.818l208.132-208.097c-26.514-37.297-40.704-81.951-40.586-127.711s14.538-90.335 41.244-127.493l-208.059-208.064z" />
<glyph unicode="&#xe907;" glyph-name="Vector-11" horiz-adv-x="819" d="M0 960v-836.081h222.317l181.7-187.919 181.512 187.919h222.892v836.081h-808.42zM618.204 618.668v-73.144h-427.987v73.144h427.987zM190.217 691.809v73.143h427.987v-73.143h-427.987z" />
<glyph unicode="&#xe908;" glyph-name="Vector11" horiz-adv-x="614" d="M407.939 448.216l-391.24-383.092c-10.773-10.524-16.699-24.593-16.699-39.595 0-15.011 5.926-29.071 16.699-39.611l34.283-33.55c10.756-10.556 25.134-16.368 40.455-16.368s29.682 5.811 40.447 16.368l465.834 456.104c10.806 10.574 16.724 24.701 16.682 39.72 0.042 15.086-5.868 29.196-16.682 39.778l-465.4 455.663c-10.764 10.556-25.126 16.367-40.456 16.367-15.322 0-29.683-5.811-40.456-16.367l-34.274-33.551c-22.302-21.837-22.302-57.386 0-79.214l390.806-382.651z" />
<glyph unicode="&#xe909;" glyph-name="showroom" d="M377.931 124.267l134.069-135.049 134.071 134.071-0.981 0.977 248.567 106.961v474.333l-381.658 144.835-381.658-144.835v-474.333l247.589-106.961zM512 778.957l256.939-95.309-256.939-91.821-256.51 91.792 256.51 95.338zM195.909 644.887l316.091-119.063v-365.227l-316.091 127.39v356.9z" />
<glyph unicode="&#xe90a;" glyph-name="Vector1111" horiz-adv-x="742" d="M426.668 960h-426.668v-1024h731.428v704.061l-304.76 319.939zM390.095 618.668v255.999l243.809-255.999h-243.809z" />
<glyph unicode="&#xe90b;" glyph-name="Vector-311" d="M411.059 651.571h201.882v308.429h411.059v-1024h-1024v1024h411.059v-308.429zM674.578 451.584l-192.033-192.036-94.070 95.736-68.475-67.284 161.946-164.813 260.513 260.513-67.881 67.884z" />
<glyph unicode="&#xe90c;" glyph-name="Vector-41" horiz-adv-x="1161" d="M1160.533 179.139h-1160.533v-96.85h1160.533v96.85zM1160.533 23.77h-1160.533v-87.77h1160.533v87.77zM0 960h1160.533v-720.329h-1160.533v720.329zM580.267 379.733c113.111 0 204.8 91.692 204.8 204.8s-91.689 204.8-204.8 204.8c-113.108 0-204.8-91.692-204.8-204.8s91.692-204.8 204.8-204.8z" />
<glyph unicode="&#xe90d;" glyph-name="Vector-22" d="M819.2 959.999h-614.398c-54.317 0-204.802 0.001-204.802 0.001s0.002-150.485 0.002-204.801v-614.399c0-54.314-0.002-204.8-0.002-204.8s150.485 0 204.802 0h614.398c54.308 0.012 204.8 0 204.8 0s-0.048 150.492-0.048 204.8v614.399c0 54.308 0 204.799 0 204.799s-150.444-0.013-204.752 0.001zM754.435 390.758h-185.191v-185.090h-114.534v185.090h-185.19v114.432h185.19v185.087h114.534v-185.087h185.191v-114.432z" />
<glyph unicode="&#xe90e;" glyph-name="close-remove" d="M512 362.673l-426.668-426.673-85.332 85.333 426.668 426.673-426.656 426.661 85.332 85.333 426.656-426.661 426.658 426.661 85.333-85.333-426.659-426.661 426.668-426.673-85.333-85.333-426.667 426.673z" />
<glyph unicode="&#xe90f;" glyph-name="Vector2" d="M1006.272 45.030l-175.226 175.334c64.051 84.717 97.184 190.064 92.768 297.62-4.416 116.397-52.275 225.428-134.733 307.201-87.616 86.929-203.208 134.814-326.899 134.814-122.954 0-239.283-47.885-326.897-135.551-180.382-179.752-180.382-472.955 0-652.705 87.614-86.931 203.206-135.552 326.897-135.552 100.867 0 198.79 33.152 278.303 93.555l175.232-175.328c11.776-11.789 27.974-18.419 44.909-18.419s33.133 6.63 44.909 18.419c11.782 11.782 18.406 27.994 18.406 44.934 0.736 17.683-5.888 33.152-17.67 45.677zM698.522 262.355c-63.319-63.354-147.252-97.984-236.339-97.984s-173.020 34.63-236.337 97.984c-130.317 130.393-130.317 341.823 0 472.218 63.318 63.356 147.251 97.98 236.337 97.98s173.020-34.624 236.339-97.98c130.317-130.394 130.317-342.561 0-472.218z" />
<glyph unicode="&#xe910;" glyph-name="Vector3" horiz-adv-x="853" d="M680.704-64v512h172.629v-512h-172.629zM345.258 960h172.679v-1024h-172.679v1024zM0 705.26h172.629v-769.26h-172.629v769.26z" />
<glyph unicode="&#xe911;" glyph-name="Vector-12" horiz-adv-x="1205" d="M1109.865 376.445c-116.11-131.709-458.354-416.182-472.877-428.301-9.553-8.216-21.938-12.547-34.629-12.113h-1.205c-12.274-0.018-24.15 4.277-33.479 12.113-14.52 12.119-356.822 296.593-472.823 428.301-127.178 144.418-126.411 352.16 1.973 483.224 30.595 31.693 67.436 56.932 108.278 74.179s84.83 26.142 129.284 26.142c44.454 0 88.442-8.895 129.284-26.142s77.683-42.487 108.278-74.179l30.41-31.070 30.413 31.124c30.606 31.68 67.458 56.908 108.303 74.148s84.829 26.13 129.283 26.13c44.454 0 88.443-8.89 129.289-26.13s77.698-42.468 108.303-74.148c128.271-131.118 129.096-338.86 1.915-483.278z" />
<glyph unicode="&#xe912;" glyph-name="arrow" horiz-adv-x="1638" d="M0 960h1638.4l-819.2-1024-819.2 1024z" />
<glyph unicode="&#xe913;" glyph-name="arrowbottom" horiz-adv-x="1707" d="M853.693 280.102l-638.486 652.066c-17.539 17.955-40.989 27.832-65.992 27.832-25.017 0-48.453-9.877-66.019-27.832l-55.918-57.138c-17.594-17.926-27.279-41.89-27.279-67.426s9.685-49.471 27.279-67.411l760.174-776.39c17.623-18.010 41.168-27.873 66.2-27.803 25.143-0.070 48.66 9.779 66.297 27.803l759.438 775.666c17.594 17.94 27.279 41.876 27.279 67.426 0 25.536-9.685 49.471-27.279 67.426l-55.917 57.123c-36.395 37.171-95.643 37.171-132.024 0l-637.752-651.344z" />
<glyph unicode="&#xe914;" glyph-name="bell" horiz-adv-x="862" d="M506.612 20.329c0-46.549-33.846-84.329-75.453-84.329-41.714 0-75.455 37.78-75.455 84.329v36.142h150.907v-36.142zM370.149 857.202v36.539c0 36.563 26.623 66.259 59.284 66.259 32.768 0 59.284-29.696 59.284-66.259v-35.852c151.014-30.419 265.809-178.188 265.809-355.677v-259.012l107.789-162.633h-862.316l107.789 162.633v259.012c0 176.177 112.964 323.090 262.36 354.991z" />
<glyph unicode="&#xe915;" glyph-name="cart1" horiz-adv-x="1069" d="M273.245 185.807h795.276v66.377h-728.287v707.816l-340.235-0.401v-66.382l273.245 0.401v-707.812zM1068.522 915.478h-578.783v-289.391l578.783-2.933v292.324zM1068.526 589.239h-685.347v-291.633h685.347v291.633zM386.613-64.004c55.021 0 99.626 45.363 99.626 101.323 0 55.955-44.605 101.318-99.626 101.318s-99.625-45.363-99.625-101.318c0-55.959 44.604-101.323 99.625-101.323zM974.051 37.318c0-55.959-44.602-101.323-99.622-101.323s-99.626 45.363-99.626 101.323c0 55.955 44.606 101.318 99.626 101.318s99.622-45.363 99.622-101.318z" />
<glyph unicode="&#xe916;" glyph-name="arrowleft" horiz-adv-x="602" d="M0 448l503.141 512 99.21-102.4-396.842-409.599 396.844-409.601-99.212-102.4-503.141 512z" />
<glyph unicode="&#xe917;" glyph-name="arrow1" horiz-adv-x="2560" d="M2154.714 344.718h-2151.651v206.583h2151.651l-265.882 261.404 148.57 146.076 519.514-510.772-519.514-510.771-148.57 146.076 265.882 261.404z" />
<glyph unicode="&#xe918;" glyph-name="delete" d="M647.078 745.312h-270.16v-45.027h-135.080v-103.415h540.318v103.415h-135.078v45.027zM286.865 533.103h450.266v-379.43h-450.266v379.43z" />
<glyph unicode="&#xe919;" glyph-name="Vector-3" horiz-adv-x="1229" d="M0 919.317v-137.913h1228.8v137.913h-1228.8zM0 367.667h1228.8v137.913h-1228.8v-137.913zM0-46.073h643.657v137.912h-643.657v-137.912z" />
<glyph unicode="&#xe91a;" glyph-name="Vector7" horiz-adv-x="1280" d="M962.465 960l317.535-319.934-318.102-316.866-110.822 105.488 136.19 135.62h-623.393v150.912h625.975l-138.823 139.946 111.44 104.834zM723.313 237.824h-723.313v150.912h723.313v-150.912zM723.313-64h-723.313v150.912h723.313v-150.912z" />
<glyph unicode="&#xe91b;" glyph-name="Vector6" horiz-adv-x="1148" d="M1148.121 678.4v281.6h-1148.121v-281.6h1148.121zM475.833 853.76c29.341 0 53.578-24.32 53.578-53.76s-24.238-53.76-53.578-53.76c-29.341 0-53.578 24.32-53.578 53.76s24.238 53.76 53.578 53.76zM318.923 853.76c29.341 0 53.578-24.32 53.578-53.76s-24.238-53.76-53.578-53.76c-29.342 0-53.58 24.32-53.58 53.76s24.238 53.76 53.58 53.76zM162.012 853.76c29.341 0 53.58-24.32 53.58-53.76s-24.239-53.76-53.58-53.76c-29.341 0-53.579 24.32-53.579 53.76s24.238 53.76 53.579 53.76zM0 640v-704h1148.121v704h-1148.121zM598.298 74.24h-443.94c0 0 0 8.96 0 19.2s0 19.2 0 19.2h443.94c0 0 0-8.96 0-19.2s0-19.2 0-19.2zM598.298 202.24h-443.94c0 0 0 8.96 0 19.2s0 19.2 0 19.2h443.94c0 0 0-8.96 0-19.2s0-19.2 0-19.2zM993.763 349.44v-19.2h-839.404v204.8h839.404v-185.6z" />
<glyph unicode="&#xe91c;" glyph-name="Vector5" horiz-adv-x="807" d="M575.618 960h18.857l212.312-234.667v-789.333h-806.788v1024h575.618zM180.869 359.857l44.1 41.598 113.534-116.364 289.86 287.030 40.422-38.788-330.282-331.869-157.634 158.393z" />
<glyph unicode="&#xe91d;" glyph-name="Vector4" horiz-adv-x="1128" d="M902.508 448l-902.508 68.266v443.734l1128.136-512-1128.136-512v443.734l902.508 68.266z" />
<glyph unicode="&#xe91e;" glyph-name="Vk" d="M741.278 154.611c-48.636 21.269-80.951 84.463-119.552 120.311-33.677-23.573 5.662-101.641-34.782-119.522-31.671-16.341-118.268-7.087-119.002-7.087-134.742 24.806-213.099 118.14-289.441 251.84-134.378 231.754-126.139 270.347-123.027 284.918 1.69 9.117 7.045 17.282 14.463 22.054 46.005 28.171 125.692 17.341 168.979 13.193s41.192-34.065 88.609-147.481c5.954-14.23 56.146-136.791 66.456-80.535 13.548 157.525-13.364 160.479-28.011 162.054-19.75 0.292-28.963 11.203-22.884 30.323 26.849 93.497 176.491 79.656 242.027 39.578 32.247-21.219 22.336-82.371 22.336-116.567-1.284-38.199-3.665-106.722 4.028-127.202 9.152 6.699 32.585 33.673 68.467 108.299 15.373 33.069 31.155 110.621 65.54 124.246 42.351 16.781 173.777 22.715 209.075-7.482l1.097-1.181c55.77-51.882-45.581-171.892-80.917-219.547-16.111-21.858-46.135-62.421-44.855-75.021 1.284-12.604 29.841-40.759 48.149-60.646 45.039-48.243 96.299-102.784 88.060-157.525-10.039-76.527-183.241-50.982-224.815-37.018zM756.471 197.931c15.002-4.181 164.207-23.113 168.247 0.789 4.757 30.912-41.741 80.533-75.793 116.565-34.052 36.036-58.953 63.010-61.15 89.788-3.477 31.701 23.253 67.738 54.925 109.478 31.006 41.955 85.312 101.217 85.312 154.177-49.139 7.292-114.82 12.871-164.036 1.772-19.294-32.198-31.33-69.301-47.415-103.178-65.907-137.832-96.482-135.468-109.845-134.879-9.276 0.154-18.334 4.591-24.533 12.011-20.868 24.021-20.506 78.763-18.308 165.203 0 55.811 2.756 82.009-55.471 96.68-36.804 6.733-88.375 6.435-106.366-16.343 30.94-19.691 45.588-72.264 34.234-203.991 0-1.775-7.138-49.818-40.093-57.498-56.141-13.082-89.737 85.171-106.001 124.837-16.263 41.603-35.545 81.764-57.669 120.111-45.221 11.223-88.099 11.617-135.842-3.347 2.014-15.753 17.026-71.476 117.352-244.161 70.301-122.867 141.334-209.109 259.603-230.771 29.431-3.708 59.17-3.708 88.606 0 0 42.334 4.156 115.179 54.007 126.805 46.494 10.415 105.771-95.556 140.237-124.049z" />
<glyph unicode="&#xe91f;" glyph-name="In" d="M709.572 587.442c-11.605 0-22.955 3.436-32.61 9.875-9.66 6.438-17.195 15.591-21.658 26.305s-5.658 22.509-3.43 33.9c2.231 11.391 7.782 21.867 15.953 30.108s18.603 13.88 29.973 16.204c11.371 2.324 23.177 1.231 33.929-3.143 10.748-4.374 19.964-11.832 26.483-21.434s10.052-20.92 10.15-32.526c0.064-7.762-1.408-15.461-4.331-22.651-2.927-7.19-7.245-13.73-12.71-19.242-5.47-5.512-11.972-9.887-19.136-12.873-7.168-2.985-14.852-4.523-22.613-4.522zM709.572 668.591c-4.489 0.031-8.887-1.28-12.625-3.765s-6.647-6.031-8.358-10.182c-1.711-4.151-2.138-8.719-1.233-13.116s3.102-8.424 6.315-11.562c3.209-3.139 7.283-5.246 11.699-6.053s8.973-0.274 13.086 1.528c4.113 1.802 7.59 4.791 9.993 8.585s3.614 8.218 3.482 12.706c-0.171 5.83-2.598 11.365-6.767 15.442-4.173 4.077-9.758 6.378-15.59 6.418zM513.323 276.096c-33.997 0-67.234 10.082-95.502 28.971-28.269 18.893-50.302 45.739-63.313 77.15s-16.415 65.975-9.782 99.319c6.633 33.344 23.005 63.976 47.046 88.017s54.671 40.413 88.015 47.046c33.348 6.633 67.913 3.229 99.324-9.782 31.407-13.011 58.257-35.044 77.146-63.313s28.971-61.507 28.971-95.503c-0.043-45.577-18.167-89.276-50.398-121.506-32.226-32.226-75.925-50.351-121.506-50.398zM513.323 583.633c-26.825 0-53.047-7.955-75.354-22.858-22.303-14.903-39.688-36.086-49.954-60.871s-12.951-52.053-7.718-78.366c5.233-26.308 18.151-50.479 37.12-69.444 18.969-18.97 43.136-31.889 69.448-37.12 26.308-5.235 53.581-2.547 78.366 7.718 24.781 10.266 45.965 27.648 60.868 49.954s22.861 48.529 22.861 75.354c-0.090 35.947-14.409 70.391-39.825 95.811-25.417 25.417-59.866 39.735-95.812 39.823zM373.883 83.661h276.4c59.942 0.132 117.389 24.013 159.761 66.415 42.368 42.398 66.206 99.866 66.295 159.808v276.399c-0.090 59.927-23.932 117.374-66.308 159.749-42.372 42.374-99.819 66.219-159.748 66.307h-276.4c-59.942-0.087-117.407-23.927-159.808-66.297s-66.283-99.817-66.414-159.759v-276.399c0.087-59.972 23.95-117.461 66.355-159.868s99.895-66.266 159.866-66.355zM239.79 720.327c35.578 35.547 83.8 55.534 134.093 55.578h276.4c50.266-0.088 98.445-20.094 133.986-55.636s55.548-83.722 55.637-133.986v-276.399c-0.043-50.295-20.032-98.517-55.578-134.093-35.546-35.58-83.75-55.607-134.046-55.697h-276.4c-50.321 0.043-98.569 20.053-134.152 55.637s-55.592 83.831-55.636 134.153v276.399c0.088 50.293 20.117 98.498 55.695 134.045z" />
<glyph unicode="&#xe920;" glyph-name="Fb" d="M560.823 22.938h-141.075c-16.158 0.090-29.472 14.187-29.292 30.093v377.967h-50.503c-16.547-0.29-30.336 14.161-29.966 30.434v119.018c-0.182 16.067 13.307 30.003 29.292 30.094h50.504v96.575c-0.813 88.004 72.276 165.295 161.612 165.944h133.329c15.659-0.179 29.385-14.28 29.291-30.095v-120.038c0.094-15.815-13.632-29.915-29.291-30.095h-78.955c-8.55-0.166-16.034-8.384-15.488-17.003v-65.29h92.591c17.114 0.101 30.588-15.881 29.291-32.474l-9.929-120.038c-1.19-14.763-14.46-27.081-29.124-27.034h-82.829v-377.967c0.094-16.094-13.444-30.003-29.457-30.093zM429.342 62.724h121.886v408.060h112.286l8.247 100.484h-121.207v105.416c-0.094 29.952 24.431 55.567 54.541 55.938h69.359v100.655h-123.059c-67.759-0.835-122.782-58.768-122.052-126.159v-136.020h-80.467v-100.484h80.467v-407.889z" />
<glyph unicode="&#xe921;" glyph-name="Vector1" horiz-adv-x="796" d="M1.083 959.493v-1023.436h770.649v714.304l-314.909 309.132h-455.74zM596.184 311.967h-175.259v-175.9h-79.254v175.9h-171.009v78.78h171.009v171.254h79.254v-171.254h175.259v-78.78z" />
<glyph unicode="&#xe922;" glyph-name="download" d="M214.146 831.625h341.805l236.181-231.849v-535.729h-577.987v767.578zM527.65 566.53h-58.099v-202.549c0-5.534 1.57-14.327 1.57-14.327l-72.656 72.866-38.514-38.515 138.805-138.803 138.807 138.803-38.515 38.515-72.751-72.866c0 0 1.254 8.367 1.353 14.327 0.098 5.956 0 202.549 0 202.549z" />
<glyph unicode="&#xe923;" glyph-name="cart" horiz-adv-x="1043" d="M260.952 190.28h781.064v60.278h-709.814v694.278l-331.605-0.391v-55.545h260.355v-698.621zM378.705-53.192c47.931 0 86.785 38.854 86.785 86.785s-38.854 86.785-86.785 86.785c-47.929 0-86.783-38.854-86.783-86.785s38.854-86.785 86.783-86.785zM868.447-53.192c47.929 0 86.783 38.854 86.783 86.785s-38.854 86.785-86.783 86.785c-47.931 0-86.785-38.854-86.785-86.785s38.854-86.785 86.785-86.785zM1013.004 849.679l-0.004-538.971h-612.030v538.971h612.034zM677.149 404.111h63.38v220.964c0 6.034-1.711 15.628-1.711 15.628l79.259-79.49 42.016 42.016-151.425 151.424-151.425-151.424 42.016-42.016 79.367 79.49c0 0-1.368-9.13-1.476-15.628s0-220.964 0-220.964z" />
<glyph unicode="&#xe924;" glyph-name="Union3" d="M995.489 804.752l-155.246 155.248-342.496-342.498-342.498 342.498-155.247-155.248 342.498-342.499-342.498-342.5 155.247-155.246 342.499 342.5 342.496-342.5 155.25 155.246-342.5 342.5 342.496 342.499z" />
<glyph unicode="&#xe925;" glyph-name="delivery" d="M704.282 201.007h192v631.285h-192v-631.285zM649.425 749.95h-211.686l-107.546-168.597-201.91-57.734v-322.611h84.754c6.429-38.374 26.243-73.22 55.922-98.355s67.3-38.925 106.181-38.925c38.88 0 76.5 13.79 106.179 38.925s49.493 59.981 55.923 98.355h112.183v548.943zM436.092 137.165c-18.040-12.062-39.252-18.5-60.952-18.5-29.089 0.030-56.979 11.605-77.548 32.188s-32.138 48.491-32.166 77.602c0 21.713 6.435 42.94 18.49 60.992 12.055 18.057 29.191 32.128 49.238 40.439 20.048 8.307 42.108 10.483 63.39 6.246s40.832-14.694 56.175-30.046c15.343-15.356 25.792-34.918 30.029-56.213 4.233-21.299 2.061-43.375-6.246-63.433-8.303-20.062-22.366-37.21-40.41-49.276z" />
<glyph unicode="&#xe926;" glyph-name="saw" d="M937.929 450.086c-4.915 16.939-13.709 31.565-23.377 42.812-18.901 20.348-43.132 28.996-67.657 26.615-7.714 36.81-21.299 71.43-39.663 102.878l83.375 47.019-10.803 18.031c-2.59 4.248-5.299 8.333-8.137 12.245-3.017 3.777-6.31 7.276-9.591 10.64-6.618 6.708-13.568 12.649-20.659 17.723-14.98 9.487-30.511 15.523-45.338 17.647-29.602 3.268-54.481-6.757-72.132-27.162-28.151 22.385-59.819 40.483-94.118 53.141l35.264 93.452-19.703 7.189c-9.297 3.441-19.042 4.681-28.322 5.863-9.374 0.826-18.368 1.624-27.2 0.125-8.781-1.192-17.114-3.104-24.828-5.671-7.714-2.489-14.805-5.757-21.193-10.207-25.472-16.791-38.195-41.762-37.918-69.933-36.907-0.654-72.384-7.17-105.556-18.694l-33.040 95.528-19.665-7.295c-9.403-3.21-17.575-8.718-25.451-13.792-7.685-5.459-15.083-10.659-20.906-17.493-5.967-6.583-11.131-13.446-15.398-20.395-2.138-3.479-4.048-6.978-5.737-10.486-1.575-3.671-2.874-7.41-3.981-11.092-4.401-14.772-5.155-29.171-2.396-42.396 2.807-12.889 8.954-24.74 17.47-35.043-27.532-23.423-51.341-51.113-70.405-82.1l-84.199 50.633c0 0-10.94-17.954-10.511-18.194-8.62-17.944-14.883-36.1-15.351-54.083-0.515-8.871-0.239-17.435 0.802-25.489 1.336-8.15 3.78-15.916 6.663-22.971 10.396-26.394 32.047-43.106 57.135-48.751-3.675-20.241-5.699-41.067-5.699-62.374 0-16.179 1.193-32.055 3.332-47.637l-92.18-14.933c0 0 0.812-5.201 1.632-10.402 0.42-2.594 0.84-5.188 1.165-7.138 0.353-1.941 0.716-3.213 0.716-3.213 4.983-19.298 11.599-37.35 22.778-51.392 5.289-7.121 10.988-13.495 16.945-18.982 6.043-5.457 13.021-9.745 19.694-13.303 23.217-12.561 48.477-12.484 70.328-2.718 18.472-32.794 42.080-62.242 69.803-87.206l-57.879-67.46c0 0 3.914-3.482 7.818-6.959 4.153-3.191 8.305-6.374 8.305-6.374 7.876-6.007 16.057-11.234 24.305-15.607 8.458-4.058 17.251-6.912 25.728-9.114 16.792-4.757 33.937-4.16 48.629-1.084 14.635 2.854 27.675 10.014 37.794 19.29 6.453 5.892 11.628 12.83 15.828 20.454 34.77-12.804 72.21-19.985 111.207-20.706l-1.173-86.443c0 0 5.201-0.452 10.402-0.068 5.205 0.222 10.415 0.452 10.415 0.452 9.843 0.452 19.43 1.711 28.527 3.652 9.058 2.509 17.63 5.901 25.536 9.728 15.915 7.215 28.685 18.714 37.978 30.63 4.617 6.063 8.448 12.092 11.187 18.782 2.731 6.746 4.544 13.581 5.461 20.425 1.126 8.38 0.725 16.742-0.777 24.998 35.878 13.687 68.89 33.237 97.843 57.532l54.797-67.558c0 0 1.079 0.742 2.539 2.057 1.459 1.31 3.409 3.059 5.355 4.809 3.878 3.516 7.761 7.036 7.761 7.036 29.986 26.295 43.588 63.078 42.445 93.124-1.318 25.92-12.851 47.066-30.882 61.205 17.604 32.661 30.020 68.531 36.382 106.475l88.828-16.956 3.226 20.821c0.725 4.919 1.25 9.822 1.574 14.647 0.252 4.834-0.179 9.63-0.533 14.327-0.811 9.391-2.385 18.428-4.612 26.893zM512.009 373.918c-40.64 0-73.583 33.169-73.583 74.086 0 40.913 32.943 74.082 73.583 74.082s73.583-33.169 73.583-74.082c0-40.917-32.943-74.086-73.583-74.086z" />
<glyph unicode="&#xe927;" glyph-name="palette" d="M750.242 744.479l-365.305-631.165v508.265l148.238 249.963 217.067-127.063zM88.458 871.54h254.125v-847.084h-254.125v847.084zM191.99 116.305c6.965-4.655 15.154-7.138 23.531-7.138 11.229 0.013 21.993 4.48 29.933 12.42s12.407 18.705 12.422 29.935c0 8.375-2.484 16.563-7.138 23.531-4.654 6.963-11.269 12.39-19.008 15.599-7.739 3.204-16.255 4.045-24.471 2.411s-15.763-5.67-21.686-11.593c-5.923-5.922-9.957-13.47-11.591-21.687-1.634-8.213-0.796-16.73 2.41-24.469s8.634-14.353 15.599-19.008zM729.126 278.583h206.417v-254.127h-550.606v55.42l344.189 198.707zM471.71 178.871l451.379 263.057-9.259 16.657-105.886 183.395-9.941 15.485-72.179-38.436-254.114-440.157z" />
<glyph unicode="&#xe928;" glyph-name="oversized" d="M964.591 827.010h-384.585c-69.039-1.415-199.832-152.98-278.273-319.661l-13.879-32.439c-75.445-10.074-260.146-34.381-260.146-34.381 75.129-27.891 224.687-66.927 224.687-66.927s-0.34-1.114-0.422-1.783c-0.454-1.493-0.794-3.017-1.167-4.514-0.357-1.51-0.73-2.987-1.086-4.45-1.378-6.054-2.708-11.981-3.924-17.958-0.73-3.657-1.459-7.39-2.108-11.063-0.519-2.782-0.957-5.453-1.378-8.247-0.6-4.036-1.167-8.188-1.735-12.19-0.292-2.099-0.519-4.041-0.746-6.135-0.211-2.035-0.438-4.053-0.567-6.007-0.097-0.081-0.097-0.145-0.097-0.226v-0.077c0 0 0.097 0 0.097-0.081-0.097-1.225-0.097-2.321-0.097-3.575 0-2.479 0.097-4.958 0.146-7.424 0.373-12.732 1.913-25.126 4.378-37.193 21.289-104.678 115.814-183.684 229.258-183.684 31.876 0 62.357 6.293 90.035 17.69 27.546 11.174 52.403 27.447 73.463 47.586l-44.117 42.991c-11.836-7.006-24.853-12.254-38.669-15.573-11.17-2.799-22.895-4.211-34.859-4.211-2.402 0-4.881 0.064-7.279 0.158h-0.521c-2.027 0.141-4.215 0.333-6.387 0.478-0.457 0.077-0.956 0.077-1.459 0.239-1.685 0.141-3.405 0.346-5.077 0.636-0.73 0.077-1.54 0.141-2.253 0.316-1.894 0.333-3.712 0.636-5.53 0.986-0.128 0-0.337 0.047-0.499 0.111-1.899 0.32-3.861 0.747-5.743 1.306-6.972 1.651-13.585 3.814-20.053 6.451-1.801 0.7-3.729 1.574-5.53 2.321-1.523 0.713-2.97 1.429-4.51 2.21-0.567 0.235-1.148 0.491-1.668 0.777-1.523 0.875-3.046 1.655-4.587 2.479-1.527 0.956-3.115 1.766-4.655 2.705-0.567 0.333-1.169 0.695-1.719 1.033-1.165 0.7-2.334 1.493-3.503 2.206-0.405 0.367-0.875 0.67-1.297 0.986-1.246 0.939-2.624 1.766-3.857 2.782-3.631 2.641-7.053 5.406-10.328 8.346-1.443 1.225-2.838 2.56-4.216 3.895-2.173 2.095-4.215 4.211-6.161 6.387-1.103 1.067-2.059 2.146-2.918 3.307-0.357 0.333-0.794 0.73-1.167 1.242-1.167 1.429-2.4 2.906-3.551 4.45-3.988 5.116-7.555 10.586-10.766 16.243-1.005 1.762-1.962 3.482-2.837 5.261-0.941 1.732-1.735 3.529-2.611 5.389-0.811 1.762-1.605 3.605-2.351 5.449-0.794 1.83-1.443 3.674-2.156 5.628-0.519 1.429-1.021 2.829-1.459 4.292-0.146 0.491-0.373 0.905-0.438 1.335l-0.065 0.094c-0.227 0.781-0.503 1.557-0.665 2.402-0.146 0.333-0.227 0.777-0.292 1.097-0.227 0.794-0.373 1.574-0.567 2.27-0.6 1.941-1.021 3.942-1.475 5.897-0.503 2.321-1.021 4.612-1.297 7.010-1.167 6.993-1.751 14.242-1.751 21.555 0 77.197 64.078 139.802 143.182 139.802 8.128 0 55.044-14.861 55.044-14.861l-2.641-5.402-40.145-72.909 128.247-19.947 39.253-6.417 5.969-22.558c0 0-0.205 1.745 0.030 0l27.452-107.473 18.743-73.877 6.938-30.242 209.25 50.731 29.363 7.932v685.033h-31.697zM588.958 578.872c-21.956 0-39.838 17.452-39.838 38.925s17.899 38.909 39.838 38.909c22.080 0 39.902-17.468 39.902-38.909 0-21.473-17.852-38.925-39.902-38.925z" />
<glyph unicode="&#xe929;" glyph-name="fragile" d="M348.973 628.315l-10.46 234.446c0 0-162.22 1.657-170.338 1.233-2.53-33.95 9.591-86.649 16.426-115.853 6.419-27.738 22.581-70.754 35.42-95.252 34.778-66.163 63.061-103.315 114.68-144.673 23.45-18.709 52.035-34.526 83.037-46.72 7.783-4.164 58.192-13.495 58.192-13.495l-2.155-319.518c-52.346 0-170.075 0-170.075 0v-97.101h434.63c0 0 0 76.599 0 94.208-45.193 0-181.935 0.964-181.935 0.964l-1.092 320.823c0 0 28.019 7.637 35.908 9.954 14.839 4.322 19.183 5.862 32.704 11.691 59.925 25.847 107.127 70.868 144.512 123.567 24.013 33.949 46.029 77.467 59.887 120.097 10.462 32.137 31.757 109.835 27.226 151.385l-357.308 0.55-149.259-236.306z" />
<glyph unicode="&#xe92a;" glyph-name="heavy" d="M774.763 547.956h-69.995c20.668 33.067 32.828 72.018 32.828 113.85 0 118.738-96.38 215.315-214.857 215.315-118.481 0-214.847-96.577-214.847-215.315 0-41.817 12.163-80.768 32.83-113.85h-91.444l-138.83-529.076h803.114l-138.799 529.076zM522.722 763.815c56.132 0 101.798-45.754 101.798-102.008s-45.666-102.023-101.798-102.023c-56.132 0-101.785 45.769-101.785 102.023s45.67 102.008 101.785 102.008z" />
<glyph unicode="&#xe92b;" glyph-name="rent" d="M791.787 728.627h167.876v-167.874h-167.876v-167.874h-74.611v-149.222h-111.915l-0.030-208.734c0 0-71.475-69.897-93.235-89.707l-92.913 89.707c0 0-0.323-9.749-0.349 208.734h-111.916v149.222h-55.958l-18.653-0.431v168.305h-167.874v167.874h167.874v111.916h559.58v-111.916zM482.419 19.823l29.577-29.577 29.577 29.577h-59.153zM456.038 57.131h111.915v186.526h-111.915v-186.526zM344.123 441.122h335.749v-48.243h-335.749v48.243z" />
<glyph unicode="&#xe92c;" glyph-name="positive" d="M927.927 655.197l-117.158 117.157-414.416-414.415-183.125 183.124-117.156-117.157 300.282-300.279 531.574 531.571z" />
<glyph unicode="&#xe92d;" glyph-name="info" d="M853.333 448c0-188.514-152.819-341.333-341.333-341.333s-341.333 152.819-341.333 341.333c0 188.513 152.82 341.333 341.333 341.333s341.333-152.82 341.333-341.333zM512.004 543.775c13.538 0 24.879 4.757 34.027 14.27 9.515 9.513 14.272 21.039 14.272 34.578s-4.757 24.881-14.272 34.029c-9.148 9.514-20.489 14.27-34.027 14.27-13.542 0-25.067-4.756-34.581-14.27-9.148-9.147-13.722-20.49-13.722-34.029s4.574-25.065 13.722-34.578c9.515-9.513 21.039-14.27 34.581-14.27zM469.739 492.753v-237.675h84.527v237.675h-84.527z" />
<glyph unicode="&#xe92e;" glyph-name="alert" d="M955.405 116.727l-443.405 768.002-443.406-768.002h886.811zM545.481 350.925h-67.563l-12.668 249.459h92.297l-12.066-249.459zM546.082 216.013c-9.651-9.651-21.111-14.477-34.381-14.477-13.274 0-24.734 4.826-34.385 14.477-9.25 9.651-13.875 20.911-13.875 33.783 0 13.269 4.625 24.73 13.875 34.385 9.651 9.651 21.111 14.477 34.385 14.477 13.269 0 24.73-4.826 34.381-14.477 9.655-9.655 14.481-21.116 14.481-34.385 0-12.873-4.826-24.132-14.481-33.783z" />
<glyph unicode="&#xe92f;" glyph-name="pending" d="M828.911 719.185l-0.781-0.751-210.492-259.913v-21.035l211.273-260.663v-66.854h-633.82v67.605l211.273 259.913v21.035l-210.49 259.913h-0.783v67.607h633.82v-66.856zM656.853 617.133l82.069 101.301h-453.845l53.057-65.696 318.718-35.605zM554.086 405.751h-84.173l-185.618-228.177h455.412l-185.621 228.177z" />
<glyph unicode="&#xe930;" glyph-name="info1" d="M512 91.118c202.526 0 366.706 164.179 366.706 366.706s-164.179 366.705-366.706 366.705c-202.525 0-366.705-164.179-366.705-366.705s164.18-366.706 366.705-366.706zM934.173 457.824c0-233.16-189.013-422.173-422.173-422.173-233.158 0-422.172 189.013-422.172 422.173 0 233.158 189.013 422.172 422.172 422.172s422.173-189.014 422.173-422.172zM546.446 564.053c-9.261-9.63-20.742-14.445-34.448-14.445-13.704 0-25.371 4.814-35.002 14.445-9.259 9.63-13.89 21.298-13.89 35.003 0 13.704 4.63 25.186 13.89 34.446 9.63 9.63 21.298 14.445 35.002 14.445 13.706 0 25.187-4.814 34.448-14.445 9.629-9.261 14.445-20.742 14.445-34.446 0-13.706-4.816-25.373-14.445-35.003zM554.779 257.366h-85.56v256.274h85.56v-256.274z" />
<glyph unicode="&#xe931;" glyph-name="certificate" d="M170 858.885h684v-821.778h-684v821.778zM234 794.885v-693.778h556v693.778h-556zM512 700.587c49.6 0 93-44.203 93-94.722 0-31.574-15.499-56.834-37.2-75.778l37.2-37.888-43.4-44.205-49.6 50.518-49.6-50.518-43.4 44.205 37.2 37.888c-21.699 15.786-37.2 44.203-37.2 75.778 0 53.677 43.4 94.722 93 94.722zM512 637.44c-18.6 0-31-12.63-31-31.574s12.4-31.574 31-31.574c18.6 0 31 12.63 31 31.574s-12.4 31.574-31 31.574zM326 384.848h372v-63.149h-372v63.149zM419 258.552h186v-63.149h-186v63.149z" />
<glyph unicode="&#xe932;" glyph-name="replace" d="M265.328 545.968h203.67v-203.669h-203.67v203.669zM655.483 561.573l127.078-220.106h-254.155l127.077 220.106zM888.909 823.576v-752.484h-752.484v752.484h752.484zM86 874v-853.333h853.333v853.333h-853.333z" />
<glyph unicode="&#xe933;" glyph-name="Related-2" d="M333.33 805.346h-178.675v-178.675h178.675v178.675zM333.33 537.334h-178.675v-178.675h178.675v178.675zM333.33 269.322h-178.675v-178.674h178.675v178.674zM869.352 745.787h-468.88v-59.558h468.88v59.558zM869.352 477.776h-468.88v-59.558h468.88v59.558zM869.352 209.763h-468.88v-59.558h468.88v59.558z" />
<glyph unicode="&#xe934;" glyph-name="New-tab" d="M145.125 783.062h288.218v-64h-224.218v-575.472h575.47v223.514h64v-287.514h-703.47v703.472zM825.728 730.532l-45.395-58.831-283.453-283.456-45.255 45.255 285.943 285.943 57.984 41.261 30.176-30.172zM846.893 739.606v44.8h-211.221v-44.8h101.128l74.234 6.806-8.96-79.431v-91.793h44.8l0.019 164.419z" />
<glyph unicode="&#xe935;" glyph-name="on-map" d="M129.635 242.091l226.734-98.449v557.884l-226.734 95.467v-554.901zM666.637 796.992v-554.901l226.731-98.449v557.884l-226.731 95.467zM398.135 143.642l226.735 98.449v554.901l-226.735-95.467v-557.884z" />
<glyph unicode="&#xe936;" glyph-name="whole" d="M628.86 516.501c11.375 20.075 17.387 42.741 17.459 65.815h-89.545c0-8.855-2.624-17.511-7.543-24.874s-11.913-13.101-20.096-16.49c-8.179-3.389-17.182-4.275-25.869-2.548-8.683 1.728-16.661 5.992-22.921 12.253-6.263 6.262-10.526 14.239-12.254 22.924s-0.841 17.687 2.547 25.868c3.388 8.181 9.126 15.174 16.491 20.093 7.36 4.92 16.017 7.546 24.875 7.546h44.77v268.633h-89.545v-186.7c-26.197-9.263-48.879-26.423-64.916-49.116s-24.642-49.801-24.627-77.589c0.284-22.961 6.449-45.467 17.909-65.367l-217.145-248.038h-114.169v-268.634h895.441v268.634h-114.167l-216.695 247.59zM297.096 268.911l165.658 188.941c31.706-12.966 67.238-12.966 98.944 0l165.21-188.941h-429.812z" />
<glyph unicode="&#xe937;" glyph-name="in-cart" d="M273.341 203.217h715.976v55.258h-650.663v636.421l-303.971-0.358v-50.916h238.658v-640.404zM381.281-19.964c43.936 0 79.553 35.618 79.553 79.552 0 43.938-35.617 79.552-79.553 79.552s-79.552-35.614-79.552-79.552c0-43.934 35.617-79.552 79.552-79.552zM830.208-19.964c43.938 0 79.556 35.618 79.556 79.552 0 43.938-35.618 79.552-79.556 79.552-43.934 0-79.552-35.614-79.552-79.552 0-43.934 35.618-79.552 79.552-79.552zM401.69 807.668h561.032l-0.004-494.055h-561.028v494.055zM853.73 638.661l-47.834 46.004-169.212-162.732-74.773 71.91-47.834-46.005 122.607-117.915 217.045 208.739z" />
<glyph unicode="&#xe938;" glyph-name="Group-1" horiz-adv-x="788" d="M526.249 958.016v-252.032h254.988l-254.988 252.032zM458.335 640v320h-458.335v-1024h787.692v704h-329.358zM194.848 448h-65.872v64h65.872v-64zM194.848 320h-65.872v64h65.872v-64zM190.764 192h-65.872v64h65.872v-64zM257.953 192v64h329.358v-64h-329.358zM587.311 320h-329.358v64h329.358v-64zM587.311 448h-329.358v64h329.358v-64z" />
<glyph unicode="&#xe939;" glyph-name="uniE924" horiz-adv-x="1856" d="M19 42l92-88q17-18 42-18t43 18v0 0l726 691 725-691q18-18 42-18 25 0 43 17v1l93 88q16 15 17 37 2 22-13 39l-2 2q-1 2-2 3l-861 819q-17 18-42 18t-43-18v0 0l-860-819q-9-8-14-18-5-11-5-23 0-11 4-21 5-11 15-19v0z" />
<glyph unicode="&#xe93a;" glyph-name="uniE92C" d="M1005 726l-90 88q-9 9-20.5 13.5t-24.5 4.5q-12 0-24-4.5t-21-13.5l-433-425-194 191q-9 9-20.5 13.5t-24.5 4.5q-12 0-24-4.5t-21-13.5l-90-88q-9-8-13.5-19.5t-4.5-24.5 4.5-24 14.5-20l328-321q10-9 21-13.5t24-4.5q13-1 24.5 4t20.5 14l568 555q9 9 14 20.5t4 23.5q1 13-4 24.5t-14 19.5v0z" />
<glyph unicode="&#xe93b;" glyph-name="uniE902" horiz-adv-x="593" d="M630 472l-475 478q-10 10-23 10t-23-9l-1-1-51-52q-10-9-10-22-1-14 9-24v0l1-1 400-403-400-403q-10-10-10-23-1-14 9-24v0l52-52q9-10 22-10 13-1 23 9v0 0l2 1 475 478q5 5 7 11 3 6 3 13t-2 13q-3 6-8 11v0z" />
<glyph unicode="&#xe93c;" glyph-name="uniE903" horiz-adv-x="593" d="M583 45l-401 403 401 403q10 10 10 23 1 13-9 23v1q-1 0-1 1l-51 51q-9 9-22 9-13 1-23-8h-1q0-1-1-1l-475-478q-10-10-10-23 0-14 9-23v-1q1 0 1-1l475-478q5-5 11-7 6-3 13-3 6 0 12 2 6 3 11 8l51 52q10 9 10 22 1 14-9 24z" />
<glyph unicode="&#xe93d;" glyph-name="uniE921" d="M993 368q-13 8-25 15t-25 15q3 25 3 50t-3 50q13 8 25 15 13 7 25 14 20 13 27 36 8 23-1 45l-35 86q-10 22-31 32-22 11-45 6-14-4-28-7l-28-8q-15 20-33 38t-38 33q4 14 7 28l8 28q5 23-5 44-11 22-33 32l-86 35q-23 9-45 2-23-8-36-28l-14-24q-8-13-15-26-25 3-50 3t-50-3q-8 13-15 25-7 13-15 25-12 20-35 27-23 8-45-1l-86-35q-22-10-32-31-11-22-6-45 4-14 7-28l8-28q-20-15-38-33t-33-38q-14 4-28 7l-28 8q-24 5-45-5-21-11-31-33l-35-86q-9-22-2-45 8-23 28-35 13-8 25-15 12-8 25-15-3-25-3-50t3-50q-13-8-25-15-13-7-25-15-20-12-27-35-8-23 1-45l35-86q10-22 31-32 22-11 45-6 14 4 28 7l28 8q15-20 33-38t38-33q-4-14-7-28l-8-28q-5-23 5-44 11-22 33-32l86-35q22-9 45-2 23 8 35 28 8 12 15 24 7 13 15 26 25-3 50-3t50 3q7-13 14-25 8-12 15-25 13-20 36-27 23-8 45 1l86 35q22 10 32 31 11 22 6 45-4 14-7 27-4 14-8 29 20 15 38 33t33 38q14-4 28-7l28-8q23-5 44 5 22 11 32 33l35 86q9 22 2 45-8 23-28 35v0zM921 232q-13 4-26 7-14 4-27 7-19 5-37-1-19-6-31-21-14-18-30-34t-34-30q-15-12-21-30-6-19-1-38l6-26q4-14 8-27l-79-33-28 48q-10 17-27 25-18 9-37 7-23-3-45-3t-45 3q-19 2-36-6-18-9-28-26l-28-48-79 33q4 13 7 26 4 14 7 27 5 19-1 37-6 19-21 31-18 14-34 30t-30 34q-12 15-30 21-19 6-38 1l-26-6q-14-4-27-8l-33 79 48 28q17 10 25 27 9 18 7 37-3 22-3 44 0 23 3 46 2 19-6 36-9 18-26 28l-48 28 33 79q13-4 26-7 14-4 27-7 19-5 37 1 19 6 31 21 14 18 30 34t34 30q15 12 21 30 6 19 1 38l-6 26q-4 14-8 27l79 33 28-48q10-17 27-25 18-9 37-7 22 3 44 3 23 0 46-3 19-2 36 6 18 9 28 26l28 48 79-33q-4-13-7-26-4-14-7-27-5-19 1-37 6-19 21-31 18-14 34-30t30-34q12-15 30-21 19-6 38-1l26 6q14 4 27 8l33-79-48-28q-17-10-25-27-9-18-7-37 3-23 3-45t-3-45q-2-19 6-36 9-18 26-28l48-28zM422 666q-45-19-78-52-32-34-49-76-18-42-19-88-1-47 18-92t52-78q34-32 76-49 42-18 88-19 47-1 92 18t78 52q32 34 49 76 18 42 19 88 0 47-18 92-19 45-52 78-34 32-76 49-42 18-88 19-47 0-92-18v0zM576 294q-31-13-64-13t-64 13-54 36-36 54q-26 64 0 127 27 64 90 91 64 26 127 0 64-27 91-90 26-64 0-127-27-64-90-91z" />
<glyph unicode="&#xe93e;" glyph-name="uniE93E" horiz-adv-x="832" d="M520 103q14 0 24 9.5t10 22.5v384q0 14-10 23t-24 9-24-9-10-23v-384q0-13 10-22.5t24-9.5zM312 103q14 0 24 9.5t10 22.5v384q0 14-10 23t-24 9-24-9-10-23v-384q0-13 10-22.5t24-9.5zM764 832h-177v64q0 27-20 45.5t-48 18.5h-206q-28 0-48-18.5t-20-45.5v-64h-177q-28 0-48-18.5t-20-45.5v-64q0-26 20-45t48-19v-576q0-53 40.5-90.5t96.5-37.5h422q56 0 96.5 37.5t40.5 90.5v576q28 0 48 19t20 45v64q0 27-20 45.5t-48 18.5v0zM313 864q0 13 10 22.5t25 9.5h136q15 0 25-9.5t10-22.5v-32h-206v32zM695 64q0-26-20-45t-48-19h-422q-28 0-48 19t-20 45v576h558v-576zM729 704h-626q-14 0-24.5 9.5t-10.5 22.5 10.5 22.5 24.5 9.5h626q14 0 24.5-9.5t10.5-22.5-10.5-22.5-24.5-9.5z" />
<glyph unicode="&#xe93f;" glyph-name="uniE92D" d="M0 505h1024v-114h-1024v114z" />
<glyph unicode="&#xe940;" glyph-name="uniE92E" d="M569 505v455h-114v-455h-455v-114h455v-455h114v455h455v114h-455z" />
<glyph unicode="&#xe941;" glyph-name="uniE90A" horiz-adv-x="788" d="M611 343h-435q-10 0-17-7t-7-17 7-17 17-7h435q11 0 18 7t7 17-7 17-18 7zM394 198h-218q-10 0-17-7t-7-17 7-17 17-7h218q10 0 17 7t7 17-7 17-17 7zM788 753q0 4-2 8-2 5-6 8l-188 184q-3 3-7 5-5 2-10 2h-457q-49 0-83-34-35-34-35-81v-794q0-47 34-81 35-34 84-34h551q49 0 84 34t35 81v702zM599 878l105-102h-102q-1 0-2 1t-1 2v99zM739 49q0-27-19-46-20-19-48-19h-554q-28 0-48 19-21 20-21 48v794q0 28 20 47 21 20 49 20h432v-133q0-21 15-35 16-15 37-15h137v-680zM152 608q0-10 7-17t17-7h435q11 0 18 7t7 17-7 17-18 7h-435q-10 0-17-7t-7-17v0zM611 487h-435q-10 0-17-7t-7-17 7-17 17-7h435q11 0 18 7t7 17-7 17-18 7v0z" />
<glyph unicode="&#xe942;" glyph-name="uniE906" horiz-adv-x="723" d="M703 533v1h-2q-12 7-25 4-14-4-21-16l-254-427q-19-32-47-53t-64-31-70-7q-34 4-66 22-31 16-52 44-22 28-30 62-9 36-4 69 6 34 25 67l335 563q13 21 32 36 20 15 43 21 25 7 48 5 24-2 46-15 22-12 35-30 14-19 20-43t3-47q-4-24-17-45v-1l-1-2-284-476q-13-22-37-29-25-7-47 5-21 12-27 36-6 25 7 46l149 249q7 11 4 24t-14 20v0 0l-2 1q-12 7-25 3-14-4-20-16l-149-249q-14-23-17-47-4-24 2-49t20-44q15-19 38-31 22-13 47-16t49 4q25 7 44 22 20 15 35 39l285 479q20 32 25 69 6 38-3 74-9 38-30 66-22 28-55 47-34 18-70 22t-74-7q-37-10-67-33-30-24-49-57l-1-1-335-562q-26-44-33-90-7-47 5-95t40-84q28-37 71-62 44-24 91-30t97 8q49 14 87 43 39 30 65 74l254 427q7 11 4 23-3 13-14 20v0z" />
<glyph unicode="&#xe943;" glyph-name="uniE928" d="M826 960h-628q-41 0-77-16-36-15-63-42t-42-63q-16-36-16-77v-628q0-41 16-77 15-36 42-63t63-42q36-16 77-16h478q18 0 30.5 12.5t12.5 30.5-12.5 30.5-30.5 12.5h-478q-46 0-79 33t-33 79v628q0 46 33 79t79 33h628q46 0 79-33t33-79v-628q0-18 12.5-30.5t30.5-12.5 30.5 12.5 12.5 30.5v628q0 41-16 77-15 36-42 63t-63 42q-36 16-77 16v0zM474 562v-76h-76q-16 0-27-11t-11-27 11-27 27-11h76v-76q0-16 11-27t27-11 26.5 11 10.5 27v76h77q16 0 27 11t11 27-11 27-27 11h-77v76q0 16-10.5 27t-26.5 11-27-11-11-27v0zM220 448q1-60 23-113 23-53 63-93t93-63q53-22 113-23 60 1 113 24 53 22 93 62t63 93q22 53 23 113-1 60-24 113-22 53-62 93t-93 63q-53 22-113 23-60-1-113-23-53-23-93-63t-63-93q-22-53-23-113v0zM717 448q0-42-16-80-16-37-44-65t-65-44q-38-16-80-16-43 0-80 16t-65 44-44 65q-16 38-16 80 0 43 16 80t44 65 65 44 80 16q42 0 80-16 37-16 65-44t44-65 16-80v0z" />
<glyph unicode="&#xe944;" glyph-name="Vector-13" horiz-adv-x="1092" d="M777.646 960h-468.962v-473.076h-308.684l546.133-550.924 546.133 550.924h-314.621v473.076z" />
<glyph unicode="&#xe945;" glyph-name="uniE942" horiz-adv-x="1084" d="M1054 713q-22 9-43.5 4t-34.5-28v0 0l-18-36q-27 59-67 110.5t-90 88.5q-31 27-67 47t-74.5 33.5-78.5 20.5-81 7q-104 0-195-40t-159-109.5-107-163.5q-39-93-39-199t39-199q39-94 107-163.5t159-109.5 195-40q50 0 98 10t93 29 87 47q41 28 77 65 14 18 14 39t-14 39q-13 13-35.5 15.5t-36.5-15.5v0 0q-54-59-127-90t-150-31q-81 0-154 32-72 32-126 86.5t-86 128.5q-32 73-32 157t31 157q31 74 84.5 128.5t126.5 86.5q72 32 156 32 54 0 106-16 52-15 98-44t83-70 62-93l-24 12q-22 9-43.5 3.5t-34.5-27.5v0 0q-9-23-4-44t28-35l145-78q22-9 43-3.5t35 27.5v0 0l78 151q9 22 4 45.5t-28 32.5v0z" />
<glyph unicode="&#xe946;" glyph-name="uniE92A" d="M0 921v-158h1024v158h-1024zM0 448v-79h1024v158h-1024v-79zM0 54v-79h1024v158h-1024v-79z" />
<glyph unicode="&#xe947;" glyph-name="uniE92B" d="M0 960h410v-410h-410v410zM614 960h410v-410h-410v410zM0 346h410v-410h-410v410zM614 346h410v-410h-410v410z" />
<glyph unicode="&#xe948;" glyph-name="shout" horiz-adv-x="1084" d="M808.924 936.621l-286.999-175.706v-505.988l287.361-170.719c21.179-12.583 48.008 2.68 48.008 27.311v798.013c0 24.821-27.196 40.051-48.369 27.089zM272.406 229.147l-1.923 0.12c-15.094 0.916-29.651 3.686-43.475 8.035l-96.616-167.285c-8.852-15.324-3.467-34.924 11.971-43.586l95.104-53.338c15.171-8.505 34.367-3.241 43.065 11.824l141.057 244.23h-149.182zM102.769 617.652v-213.376c0-12.195 1.316-24.107 3.757-35.632h-46.182c-33.327 0-60.344 27.009-60.344 60.326v163.988c0 33.317 27.017 60.325 60.344 60.325h46.199c-2.45-11.492-3.774-23.404-3.774-35.632zM458.374 292.677h-184.041c-59.654 3.62-108.013 51.965-108.013 111.597v213.374c0 59.635 48.359 107.977 108.013 104.358h184.041v-429.329zM974.348 260.578c6.21-6.198 14.342-9.3 22.474-9.3s16.264 3.102 22.468 9.3c12.408 12.408 12.408 32.521 0 44.923l-64.102 64.079c-12.408 12.403-32.527 12.403-44.936 0s-12.408-32.522 0-44.924l64.096-64.078zM932.719 632.453c-8.138 0-16.264 3.1-22.468 9.305-12.408 12.403-12.408 32.517 0 44.922l64.096 64.078c12.408 12.405 32.527 12.405 44.936 0 12.408-12.403 12.408-32.516 0-44.922l-64.096-64.078c-6.204-6.202-14.336-9.305-22.468-9.305zM961.807 473.904h90.654c17.547 0 31.774 14.222 31.774 31.765s-14.228 31.764-31.774 31.764h-90.654c-17.547 0-31.774-14.222-31.774-31.764s14.228-31.765 31.774-31.765z" />
<glyph unicode="&#xe950;" glyph-name="uniE950" horiz-adv-x="829" d="M414 960q-85 0-161-32-75-31-131.5-86t-88.5-129q-33-74-33-158 0-53 13-107 12-55 37.5-110.5t62.5-110.5q38-56 87-111 73-80 134.5-127.5t65.5-47.5q7-4 14.5-4t14.5 4q4 4 65.5 49.5t134.5 125.5q49 55 87 111 37 55 62.5 110.5t37.5 110.5q13 54 13 107 0 84-33 158-32 74-88.5 129t-131.5 86q-76 32-162 32v0zM590 155q-40-43-84-83.5t-92-76.5q-25 20-85 71-59 51-120.5 125t-108.5 167q-46 93-46 197 0 73 28 137t77 112 115 75 140 27q75 0 141-27t115-75 77-112 28-137q0-60-17-117t-44-108-60-96q-33-44-64-79v0zM414 731q-69 0-119.5-47.5t-50.5-113.5q0-70 50.5-118t119.5-48q70 0 120.5 48t50.5 118q0 66-50.5 113.5t-120.5 47.5zM414 453q-47 0-82 32t-35 80 35 80 82 32q48 0 83-32t35-80q0-44-35-78t-83-34z" />
<glyph unicode="&#xe958;" glyph-name="uniE958" d="M837 960v0 0 0q-36 0-70.5-13.5t-61.5-40.5l-651-651q-4-4-5.5-8.5t-6.5-9.5l-42-259q0-13 8.5-25t21.5-17h12l259 48q5 0 9.5 4t8.5 8l651 639q27 27 40.5 62.5t13.5 75.5q0 77-55 132t-132 55v0zM72 8l24 151 127-127-151-24zM295 62l-169 169 404 404 175-175-410-398zM747 514l-169 169 97 102 174-174-102-97zM922 683l-24-24-175 175 24 24q18 18 40 27t44 9v0q50 0 85.5-35.5t35.5-85.5q4-27-4-49.5t-26-40.5v0z" />
<glyph unicode="&#xe95f;" glyph-name="time" d="M512-64c-283.106 0-512 228.894-512 512s228.894 512 512 512c283.106 0 512-228.894 512-512s-228.894-512-512-512zM512 863.624c-228.894 0-415.624-186.729-415.624-415.624s186.729-415.624 415.624-415.624c228.894 0 415.624 186.729 415.624 415.624s-186.729 415.624-415.624 415.624zM777.035 381.741h-271.059c-24.094 0-42.165 18.071-42.165 42.165 0 0 0 0 0 0v319.247c0 24.094 18.071 42.165 42.165 42.165s42.165-18.071 42.165-42.165c0 0 0 0 0-6.024v-277.082h228.894c24.094 0 42.165-18.071 42.165-42.165s-12.047-36.141-42.165-36.141c6.024 0 0 0 0 0z" />
<glyph unicode="&#xe960;" glyph-name="calendar" d="M249.984 152c-22.091 0-40 17.909-40 40s17.909 40 40 40v0c22.091 0 40-17.909 40-40s-17.909-40-40-40v0zM249.984 500.032c-22.091 0-40 17.909-40 40s17.909 40 40 40v0c22.091 0 40-17.909 40-40s-17.909-40-40-40v0zM249.984 326.016c-22.091 0-40 17.909-40 40s17.909 40 40 40v0c22.091 0 40-17.909 40-40s-17.909-40-40-40v0zM424 152c-22.091 0-40 17.909-40 40s17.909 40 40 40v0c22.091 0 40-17.909 40-40s-17.909-40-40-40v0zM424 500.032c-22.091 0-40 17.909-40 40s17.909 40 40 40v0c22.091 0 40-17.909 40-40s-17.909-40-40-40v0zM424 326.016c-22.091 0-40 17.909-40 40s17.909 40 40 40v0c22.091 0 40-17.909 40-40s-17.909-40-40-40v0zM984 452.032c-22.091 0-40 17.909-40 40v0 227.968c0 44.16-35.904 80.064-80 80.064h-52.032v-40c0-22.091-17.909-40-40-40s-40 17.909-40 40v0 40h-181.952v-40c0-22.091-17.909-40-40-40s-40 17.909-40 40v0 40h-180.032v-40c0-22.091-17.909-40-40-40s-40 17.909-40 40v0 40h-49.984c-44.096 0-80-35.904-80-80.064v-624c0.036-44.155 35.84-79.936 80-79.936h305.984c22.091 0 40-17.909 40-40s-17.909-40-40-40v0h-305.984c-88.314 0.073-159.891 71.627-160 159.926v624.010c0.073 88.349 71.656 159.955 159.989 160.064h49.995v40c0 22.091 17.909 40 40 40s40-17.909 40-40v0-40h180.032v40c0 22.091 17.909 40 40 40s40-17.909 40-40v0-40h181.952v40c0 22.091 17.909 40 40 40s40-17.909 40-40v0-40h52.032c88.192 0 160-71.808 160-160.064v-227.968c0-22.080-17.92-40-40-40zM558.016 540.032c0 22.091 17.909 40 40 40s40-17.909 40-40v0c0-22.091-17.909-40-40-40s-40 17.909-40 40v0zM731.968 540.032c0 22.091 17.909 40 40 40s40-17.909 40-40v0c0-22.091-17.909-40-40-40s-40 17.909-40 40v0zM782.016 420.032c133.585-0.146 241.838-108.399 241.984-241.97v-0.014c-0.146-133.585-108.399-241.838-241.97-241.984h-0.014c-133.598 0.146-241.866 108.391-242.048 241.967v0.017c0.182 133.593 108.45 241.838 242.034 241.984h0.014zM782.016 16.064c89.417 0.109 161.875 72.567 161.984 161.973v0.011c-0.109 89.417-72.567 161.875-161.973 161.984h-0.011c-89.445-0.073-161.939-72.544-162.048-161.974v-0.010c0.109-89.44 72.603-161.911 162.041-161.984h0.007zM782.016 300.032c22.080 0 40-17.92 40-40v-41.984h17.984c22.091 0 40-17.909 40-40s-17.909-40-40-40v0h-57.984c-22.091 0-40 17.909-40 40v0 81.984c0 22.080 17.856 40 40 40z" />
<glyph unicode="&#xe961;" glyph-name="settings" horiz-adv-x="995" d="M527.244 460.899v470.319c0 15.99-12.792 28.782-28.782 28.782s-28.782-12.792-28.782-28.782v-470.319c-66.732-13.432-117.26-72.488-117.26-143.27s50.528-129.839 117.26-143.27v-209.362c0-15.99 12.792-28.782 28.782-28.782s28.782 12.792 28.782 28.782v209.362c66.732 13.432 117.26 72.488 117.26 143.27 0 70.569-50.315 129.839-117.26 143.27zM498.462 229.15c-48.823 0-88.478 39.655-88.478 88.478s39.655 88.478 88.478 88.478c48.823 0 88.478-39.655 88.478-88.478s-39.655-88.478-88.478-88.478zM174.824 702.241v228.977c0 15.99-12.792 28.782-28.782 28.782s-28.782-12.792-28.782-28.782v-228.977c-66.732-13.432-117.26-72.488-117.26-143.27s50.528-129.839 117.26-143.27v-450.705c0-15.99 12.792-28.782 28.782-28.782s28.782 12.792 28.782 28.782v450.918c66.732 13.432 117.26 72.488 117.26 143.27s-50.528 129.626-117.26 143.057zM146.042 470.493c-48.823 0-88.478 39.655-88.478 88.478s39.655 88.478 88.478 88.478c48.823 0 88.478-39.655 88.478-88.478s-39.868-88.478-88.478-88.478zM877.532 702.241v228.977c0 15.99-12.792 28.782-28.782 28.782s-28.782-12.792-28.782-28.782v-228.977c-66.732-13.432-117.26-72.488-117.26-143.27s50.528-129.839 117.26-143.27v-450.918c0-15.99 12.792-28.782 28.782-28.782s28.782 12.792 28.782 28.782v451.131c66.732 13.432 117.26 72.488 117.26 143.27s-50.315 129.626-117.26 143.057zM848.75 470.493c-48.823 0-88.478 39.655-88.478 88.478s39.655 88.478 88.478 88.478c48.823 0 88.478-39.655 88.478-88.478s-39.655-88.478-88.478-88.478z" />
<glyph unicode="&#xe965;" glyph-name="copy" horiz-adv-x="956" d="M478.208 912.691c-264.124 0-478.276-211.9-478.276-473.020 0-261.393 214.153-473.156 478.276-473.156 264.192 0 478.345 211.763 478.345 473.156 0 261.12-214.153 473.020-478.345 473.020zM428.169 738.816h99.328c19.593 0 35.157-16.316 34.133-35.635l-17.818-332.527c-1.112-17.949-15.941-32.085-34.072-32.085-0.022 0-0.043 0-0.065 0h-62.939c-0.020 0-0.043 0-0.066 0-18.107 0-32.921 14.099-34.063 31.917l-0.005 0.1-18.637 332.527c-0.025 0.489-0.039 1.062-0.039 1.639 0 18.814 15.251 34.065 34.065 34.065 0.062 0 0.124 0 0.186 0h-0.010zM558.421 166.195c-4.739-10.629-11.183-19.673-19.081-27.207l-0.034-0.032c-7.939-7.48-17.196-13.676-27.366-18.185l-0.623-0.247c-9.802-4.358-21.238-6.895-33.267-6.895-0.089 0-0.177 0-0.266 0h0.014c-11.81 0-23.006 2.321-33.587 6.895-20.74 8.959-36.985 25.049-45.926 45.112l-0.222 0.558c-4.4 9.65-6.964 20.929-6.964 32.807 0 0.13 0 0.26 0.001 0.39v-0.020c0 11.674 2.321 22.733 6.963 33.178 4.772 10.716 11.038 19.889 18.659 27.739l-0.022-0.023c7.782 7.919 16.93 14.268 27.511 18.91 10.581 4.574 21.777 6.895 33.587 6.895 11.742 0 22.938-2.321 33.519-6.895 21.112-9.236 37.664-25.634 46.873-46.055l0.231-0.572c4.642-10.445 6.963-21.504 6.963-33.178s-2.321-22.733-6.963-33.178z" />
<glyph unicode="&#xe969;" glyph-name="plus-copy" d="M511.943-63.943c-282.34 0-512.057 229.717-512.057 512.114 0 282.34 229.717 512 512.057 512s512.057-229.66 512.057-512c0-282.396-229.717-512.114-512.057-512.114zM511.943 901.689c-250.084 0-453.575-203.492-453.575-453.518 0-250.084 203.492-453.518 453.575-453.518s453.518 203.435 453.518 453.518c0 250.027-203.435 453.518-453.518 453.518zM713.842 418.873h-172.658v-172.601c0-16.165-13.104-29.269-29.269-29.269s-29.269 13.104-29.269 29.269v172.601h-172.601c-0.385-0.018-0.837-0.028-1.291-0.028-16.181 0-29.298 13.117-29.298 29.298s13.117 29.298 29.298 29.298c0.454 0 0.905-0.010 1.354-0.031l-0.064 0.002h172.601v172.601c1.198 15.221 13.844 27.118 29.269 27.118s28.071-11.897 29.263-27.016l0.006-0.102v-172.601h172.658c16.165 0 29.269-13.104 29.269-29.269s-13.104-29.269-29.269-29.269v0z" />
<glyph unicode="&#xe96a;" glyph-name="quest-copy" d="M1024 448.085c0-282.77-229.23-512-512-512s-512 229.23-512 512v0c0 282.77 229.23 512 512 512s512-229.23 512-512v0zM525.739 790.784c-112.555 0-184.32-47.445-240.64-131.669-2.63-3.871-4.198-8.647-4.198-13.79 0-8.038 3.832-15.181 9.77-19.702l0.061-0.044 71.595-54.272c4.109-3.149 9.321-5.047 14.977-5.047 7.846 0 14.84 3.652 19.374 9.348l0.039 0.050c36.949 46.763 62.208 73.899 118.357 73.899 42.155 0 94.293-27.136 94.293-68.011 0-30.976-25.515-46.848-67.157-70.229-48.555-27.221-112.811-61.099-112.811-145.835v-8.277c0-13.653 11.093-24.747 24.747-24.747h115.627c13.653 0 24.832 11.093 24.832 24.747v2.731c0 58.795 171.691 61.269 171.691 220.245 0 119.723-124.245 210.603-240.555 210.603zM512 278.784c-0.025 0-0.055 0-0.085 0-52.501 0-95.061-42.56-95.061-95.061s42.56-95.061 95.061-95.061c52.501 0 95.061 42.56 95.061 95.061 0 0.030 0 0.060 0 0.090v-0.005c0 52.309-42.667 94.976-94.976 94.976z" />
</font>
</defs>
</svg>
