<svg width="109" height="35" viewBox="0 0 109 35" fill="none" xmlns="http://www.w3.org/2000/svg">
<path d="M47.3053 34.7153V18.9561H32.7771V34.7153H37.3393V23.1126H42.7368V34.7153H47.3053Z" fill="white"/>
<path d="M57.2904 24.3639C57.2904 24.7742 57.1575 25.0787 56.8981 25.2839C56.6323 25.489 56.3096 25.5883 55.9173 25.5883H53.0256V23.1063H55.9173C56.3096 23.1063 56.6387 23.2122 56.8981 23.4107C57.1575 23.6226 57.2904 23.9402 57.2904 24.3639ZM61.9222 24.3639C61.9222 23.6225 61.8083 22.9276 61.5742 22.2723C61.3401 21.6171 60.9921 21.0412 60.5365 20.5448C60.0746 20.0484 59.5114 19.6579 58.828 19.3733C58.151 19.0887 57.3727 18.9497 56.4995 18.9497H48.457V34.709H53.0193V29.7449H56.4995C57.3727 29.7449 58.151 29.6059 58.828 29.3213C59.5051 29.0367 60.0746 28.6462 60.5365 28.1498C60.9984 27.6534 61.3401 27.0842 61.5742 26.4355C61.802 25.8001 61.9222 25.1052 61.9222 24.3639Z" fill="white"/>
<path d="M80.8103 15.9844L74.8687 7.54547L80.5572 0.218506H74.9826L71.0278 6.12906V0.218506H66.4656V15.9844H71.0278V11.6094L71.863 10.4313L75.2546 15.9844H80.8103Z" fill="white"/>
<path d="M89.3332 15.8652C90.0861 15.5806 90.7379 15.2165 91.2884 14.7797C91.8389 14.3362 92.2945 13.8398 92.6678 13.2905C93.0348 12.7411 93.3322 12.205 93.56 11.6821L89.6306 9.78914C89.542 10.1068 89.4028 10.3981 89.2129 10.6761C89.0231 10.954 88.8016 11.1923 88.5485 11.3975C88.2954 11.6027 88.0044 11.7682 87.688 11.8939C87.3716 12.0197 87.0489 12.0859 86.7135 12.0859C86.1693 12.0859 85.6758 11.9866 85.2202 11.7814C84.7709 11.5762 84.3786 11.2982 84.0559 10.9408C83.7332 10.5834 83.4864 10.1664 83.3092 9.68986C83.1384 9.20669 83.0498 8.69705 83.0498 8.14107C83.0498 7.59172 83.1384 7.07545 83.3092 6.59228C83.4801 6.10911 83.7332 5.69213 84.0559 5.34134C84.3786 4.98393 84.7646 4.70594 85.2202 4.50076C85.6695 4.29557 86.1693 4.19629 86.7135 4.19629C87.0426 4.19629 87.3716 4.26248 87.688 4.38824C88.0044 4.51399 88.2891 4.67946 88.5485 4.88464C88.8016 5.08983 89.0294 5.33472 89.2129 5.61933C89.4028 5.90393 89.542 6.19516 89.6306 6.493L93.56 4.58018C93.3322 4.04406 93.0348 3.50132 92.6678 2.95197C92.3008 2.40261 91.8326 1.9062 91.2757 1.47598C90.7189 1.04576 90.0672 0.688351 89.3205 0.410363C88.5738 0.132375 87.707 0 86.7135 0C85.5366 0 84.4419 0.198563 83.4295 0.589069C82.4107 0.986195 81.5375 1.53555 80.7972 2.257C80.0568 2.97182 79.481 3.83226 79.0571 4.83169C78.6331 5.83113 78.4243 6.93646 78.4243 8.15431C78.4243 9.36554 78.6331 10.4709 79.0571 11.4769C79.481 12.4764 80.0568 13.3368 80.7972 14.0516C81.5375 14.7664 82.4107 15.3224 83.4295 15.7196C84.4482 16.1167 85.5429 16.3086 86.7135 16.3086C87.707 16.2888 88.5802 16.1498 89.3332 15.8652Z" fill="white"/>
<path d="M98.8821 15.9844L104.438 7.04906V15.9844H109V0.218506H104.305L99.0656 8.63095V0.218506H94.4971V15.9844H98.8821Z" fill="white"/>
<path d="M24.0576 34.7156V14.3298L12.0288 30.056L0 14.3298V34.7156H24.0576Z" fill="white"/>
<path d="M12.0288 15.9447L0 0.218506H24.0513L12.0288 15.9447Z" fill="white"/>
<path d="M74.324 26.8457C74.324 27.3951 74.2354 27.9113 74.0646 28.3945C73.8938 28.8777 73.647 29.2947 73.3306 29.6455C73.0142 30.0029 72.6346 30.2809 72.1916 30.486C71.7487 30.6912 71.2551 30.7905 70.711 30.7905C70.1668 30.7905 69.6732 30.6912 69.2303 30.486C68.7874 30.2809 68.4077 30.0029 68.0913 29.6455C67.7749 29.288 67.5282 28.8711 67.3573 28.3945C67.1865 27.9113 67.0979 27.3951 67.0979 26.8457C67.0979 26.2964 67.1865 25.7801 67.3573 25.2969C67.5282 24.8138 67.7749 24.3968 68.0913 24.046C68.4077 23.6886 68.7874 23.4106 69.2303 23.2054C69.6732 23.0002 70.1668 22.9009 70.711 22.9009C71.2551 22.9009 71.7487 23.0068 72.1916 23.2054C72.6346 23.4106 73.0142 23.6886 73.3306 24.046C73.647 24.4034 73.8938 24.8204 74.0646 25.2969C74.2354 25.7801 74.324 26.2964 74.324 26.8457ZM78.9559 26.8457C78.9559 25.6345 78.747 24.5292 78.3231 23.5231C77.8991 22.5237 77.3233 21.6632 76.583 20.9484C75.8427 20.2336 74.9695 19.6776 73.9634 19.2805C72.9573 18.89 71.8689 18.6914 70.711 18.6914C69.553 18.6914 68.4647 18.89 67.4586 19.2805C66.4525 19.6776 65.5729 20.227 64.8389 20.9484C64.0986 21.6632 63.5228 22.5237 63.0988 23.5231C62.6749 24.5225 62.4661 25.6279 62.4661 26.8457C62.4661 28.0569 62.6749 29.1623 63.0988 30.1683C63.5228 31.1744 64.0986 32.0282 64.8389 32.743C65.5793 33.4579 66.4525 34.0138 67.4586 34.411C68.4647 34.8015 69.553 35 70.711 35C71.8689 35 72.9573 34.8015 73.9634 34.411C74.9695 34.0138 75.849 33.4645 76.583 32.743C77.3233 32.0282 77.8991 31.1678 78.3231 30.1683C78.747 29.1689 78.9559 28.0569 78.9559 26.8457Z" fill="white"/>
<path d="M50.6653 15.9844V0.218506H44.363L41.7244 7.78375L39.0794 0.218506H32.7771V15.9844H37.3393V6.50633L40.7056 15.9844H42.7368L46.1031 6.50633V15.9844H50.6653Z" fill="white"/>
<path d="M60.1439 9.98117H57.1636L58.6569 4.89797L60.1439 9.98117ZM67.079 15.9844L61.517 0.218506H55.7778L50.2222 15.9778H55.3982L55.9423 14.1378H61.3651L61.9093 15.9778H67.079V15.9844Z" fill="white"/>
</svg>
