<svg width="27" height="14" viewBox="0 0 27 14" fill="none" xmlns="http://www.w3.org/2000/svg">
<path d="M12.1905 12.8291H9.7965L8.9145 10.5251H3.4065L2.5245 12.8291H0.1305L4.8465 0.823101H7.4745L12.1905 12.8291ZM8.3205 8.6711L6.1605 2.9471L4.0005 8.6711H8.3205Z" fill="white"/>
<path d="M24.4098 11.2991C23.2578 12.4631 21.7878 13.0451 19.9998 13.0451C18.2118 13.0451 16.7418 12.4631 15.5898 11.2991C14.4378 10.1231 13.8618 8.6351 13.8618 6.8351C13.8618 5.0351 14.4378 3.5531 15.5898 2.3891C16.7418 1.2131 18.2118 0.625101 19.9998 0.625101C21.7878 0.625101 23.2578 1.2131 24.4098 2.3891C25.5618 3.5531 26.1378 5.0351 26.1378 6.8351C26.1378 8.6351 25.5618 10.1231 24.4098 11.2991ZM19.9998 11.1731C21.1878 11.1731 22.1478 10.7651 22.8798 9.9491C23.6118 9.1211 23.9778 8.0831 23.9778 6.8351C23.9778 5.5751 23.6118 4.5371 22.8798 3.7211C22.1478 2.9051 21.1878 2.4971 19.9998 2.4971C18.7998 2.4971 17.8338 2.9051 17.1018 3.7211C16.3818 4.5371 16.0218 5.5751 16.0218 6.8351C16.0218 8.0951 16.3818 9.1331 17.1018 9.9491C17.8338 10.7651 18.7998 11.1731 19.9998 11.1731Z" fill="#AFB6BD"/>
</svg>
