<?xml version="1.0" encoding="utf-8"?>
<!-- Generator: Adobe Illustrator 23.0.1, SVG Export Plug-In . SVG Version: 6.00 Build 0)  -->
<svg version="1.1" id="Слой_1" xmlns="http://www.w3.org/2000/svg" xmlns:xlink="http://www.w3.org/1999/xlink" x="0px" y="0px"
	 viewBox="0 0 45 58" style="enable-background:new 0 0 45 58;" xml:space="preserve">
<style type="text/css">
	.st0{fill-rule:evenodd;clip-rule:evenodd;fill:#C30E2E;}
</style>
<path class="st0" d="M45,22.8C45,10.2,34.9,0,22.5,0C10.1,0,0,10.2,0,22.8c0,4.9,1.5,9.5,4.2,13.2v0l0.1,0.2
	c0.3,0.4,0.6,0.8,0.9,1.2l14.8,19.4c1,1.3,2.9,1.6,4.3,0.6c0.2-0.2,0.4-0.4,0.6-0.6l14.8-19.3c0.4-0.4,0.7-0.9,1-1.3l0.2-0.2l0,0
	C43.6,32.1,45,27.5,45,22.8z M30.8,11.1l-8.3,10.5l-8.3-10.5H30.8z M30.8,34.1H14.2V20.5L22.5,31l8.3-10.5V34.1z"/>
</svg>
