<svg width="35" height="60" viewBox="0 0 35 60" fill="none" xmlns="http://www.w3.org/2000/svg">
<path d="M35 22.0312C35 21.4844 34.8137 21.0156 34.4412 20.625C34.0686 20.2344 33.6078 20.0391 33.0588 20.0391H23.9412C23.902 19.9219 23.8431 19.7168 23.7647 19.4238C23.6863 19.1309 23.549 18.6719 23.3529 18.0469H26.5882C27.6078 18.0078 28.4902 17.6367 29.2353 16.9336C29.9804 16.2305 30.3922 15.3516 30.4706 14.2969L31.1176 4.16016C31.1176 3.76953 31.049 3.37891 30.9118 2.98828C30.7745 2.59766 30.5686 2.24609 30.2941 1.93359C30.0196 1.62109 29.6961 1.38672 29.3235 1.23047C28.951 1.07422 28.5686 0.996094 28.1765 0.996094C27.4314 0.996094 26.7745 1.25977 26.2059 1.78711C25.6373 2.31445 25.3137 2.94922 25.2353 3.69141L24.5882 10.0195H21.8824C22.902 8.80859 23.3922 7.39258 23.3529 5.77148C23.3137 4.15039 22.7255 2.79297 21.5882 1.69922C20.451 0.566406 19.098 0 17.5294 0C15.9608 0 14.6078 0.566406 13.4706 1.69922C12.3725 2.79297 11.7941 4.15039 11.7353 5.77148C11.6765 7.39258 12.1765 8.80859 13.2353 10.0195H12.7647C11.9804 10.0195 11.2549 10.2441 10.5882 10.6934C9.92157 11.1426 9.45098 11.7383 9.17647 12.4805L6.17647 19.9805H1.94118C1.43137 19.9805 0.980392 20.1758 0.588235 20.5664C0.196078 20.957 0 21.4258 0 21.9727V25.9277C0 25.9277 0.0784314 26.2891 0.235294 27.0117H5.82353V52.0312H4.88235C4.05882 52.0312 3.36275 52.3242 2.79412 52.9102C2.22549 53.4961 1.94118 54.1992 1.94118 55.0195V58.0078C1.94118 58.5547 2.13725 59.0234 2.52941 59.4141C2.92157 59.8047 3.37255 60 3.88235 60H31.1176C31.6667 60 32.1275 59.8047 32.5 59.4141C32.8726 59.0234 33.0588 58.5547 33.0588 58.0078V55.0195C33.0588 54.1992 32.7745 53.4961 32.2059 52.9102C31.6373 52.3242 30.9412 52.0312 30.1176 52.0312H29.1765V27.0117H34.4118L34.7941 26.6309C34.7941 26.6309 34.8431 26.5625 34.9412 26.4258C34.9804 26.2695 35 25.9961 35 25.6055V22.0312ZM17.5294 1.99219C18.5882 1.99219 19.5 2.39258 20.2647 3.19336C21.0294 3.99414 21.4118 4.94141 21.4118 6.03516C21.4118 7.12891 21.0294 8.06641 20.2647 8.84766C19.5 9.62891 18.5882 10.0195 17.5294 10.0195C16.4314 10.0195 15.5098 9.62891 14.7647 8.84766C14.0196 8.06641 13.6471 7.12891 13.6471 6.03516C13.6471 4.90234 14.0196 3.94531 14.7647 3.16406C15.5098 2.38281 16.4314 1.99219 17.5294 1.99219ZM10.8824 13.2422C11.0392 12.8906 11.2843 12.5977 11.6176 12.3633C11.951 12.1289 12.3137 12.0117 12.7059 12.0117H24.5294C25.0392 12.0117 25.4804 11.8457 25.8529 11.5137C26.2255 11.1816 26.4314 10.7617 26.4706 10.2539L27.1176 3.92578C27.1569 3.65234 27.2843 3.42773 27.5 3.25195C27.7157 3.07617 27.9608 2.98828 28.2353 2.98828C28.4706 2.98828 28.6863 3.0957 28.8824 3.31055C29.0784 3.52539 29.1765 3.76953 29.1765 4.04297C29.1765 4.08203 29.1569 4.43359 29.1176 5.09766C29.0784 5.76172 28.8824 8.76953 28.5294 14.1211C28.4902 14.6289 28.2843 15.0684 27.9118 15.4395C27.5392 15.8105 27.0784 15.9961 26.5294 15.9961H22.7059L22.5882 15.7031C22.549 15.5078 22.4608 15.3516 22.3235 15.2344C22.1863 15.1172 22.0392 15.0391 21.8824 15C21.7255 14.9609 21.5588 14.9707 21.3824 15.0293C21.2059 15.0879 21.0588 15.1758 20.9412 15.293C20.8235 15.4102 20.7451 15.5664 20.7059 15.7617C20.6667 15.957 20.6863 16.1328 20.7647 16.2891L21.8824 19.9805H13.1176L14.2353 16.2891C14.3137 16.0156 14.2843 15.7617 14.1471 15.5273C14.0098 15.293 13.8235 15.1172 13.5882 15C13.3529 14.9219 13.1078 14.9512 12.8529 15.0879C12.598 15.2246 12.4314 15.4297 12.3529 15.7031L11.0588 19.9805H8.23529L10.8824 13.2422ZM30.1176 54.0234C30.3922 54.0234 30.6275 54.1211 30.8235 54.3164C31.0196 54.5117 31.1176 54.7461 31.1176 55.0195V58.0078H3.88235V55.0195C3.88235 54.7461 3.98039 54.5117 4.17647 54.3164C4.37255 54.1211 4.60784 54.0234 4.88235 54.0234H30.1176ZM7.76471 52.0312V27.0117H27.2353V52.0312H7.76471ZM33.0588 25.0195H1.94118V22.0312H33.0588V25.0195Z" fill="black"/>
</svg>
