<svg width="60" height="60" viewBox="0 0 60 60" fill="none" xmlns="http://www.w3.org/2000/svg">
<path d="M41.2317 18.7683C41.1535 18.6901 41.0459 18.6119 40.9091 18.5337C40.7722 18.4555 40.6452 18.4164 40.5279 18.4164C40.3324 18.4164 40.176 18.4457 40.0587 18.5044C39.9413 18.563 39.8436 18.651 39.7654 18.7683L32.1994 26.3343L31.9648 26.1584C31.3783 25.8847 30.7527 25.7478 30.088 25.7478C29.4233 25.7478 28.7977 25.8847 28.2111 26.1584L27.9765 26.3343L24.4575 22.8153C24.262 22.6197 24.0078 22.522 23.695 22.522C23.3822 22.522 23.1085 22.6197 22.8739 22.8153C22.7566 22.8935 22.6784 23.0108 22.6393 23.1672C22.6002 23.3236 22.5806 23.4604 22.5806 23.5777C22.5806 23.695 22.6002 23.8221 22.6393 23.9589C22.6784 24.0958 22.7566 24.2033 22.8739 24.2815L26.393 27.8006L26.217 28.0352C26.0606 28.3089 25.9531 28.6119 25.8944 28.9443C25.8358 29.2766 25.8065 29.5992 25.8065 29.912C25.8065 31.0459 26.217 32.0332 27.0381 32.8739C27.8592 33.7146 28.8759 34.1349 30.088 34.1349C31.261 34.1349 32.2581 33.7243 33.0792 32.9032C33.9003 32.0821 34.3109 31.085 34.3109 29.912C34.3109 29.5992 34.2718 29.2766 34.1936 28.9443C34.1153 28.6119 34.0176 28.3089 33.9003 28.0352L33.7243 27.8006L41.2903 20.2346C41.4467 20.1173 41.5445 19.9902 41.5836 19.8534C41.6227 19.7165 41.6422 19.5894 41.6422 19.4721C41.6031 19.3548 41.5543 19.2278 41.4956 19.0909C41.437 18.9541 41.349 18.8465 41.2317 18.7683ZM30.088 32.0235C29.5015 32.0235 29.0127 31.828 28.6217 31.437C28.2307 31.0459 28.0352 30.5572 28.0352 29.9707C28.0352 29.4233 28.2307 28.9541 28.6217 28.563C29.0127 28.172 29.5015 27.9765 30.088 27.9765C30.6354 27.9765 31.1046 28.172 31.4956 28.563C31.8866 28.9541 32.0821 29.4233 32.0821 29.9707C32.0821 30.5572 31.8866 31.0459 31.4956 31.437C31.1046 31.828 30.6354 32.0235 30.088 32.0235ZM51.3196 3.40176C51.2805 3.16716 51.1828 3.01075 51.0264 2.93255L50.6745 2.7566C50.6745 2.7566 50.5474 2.74682 50.2933 2.72727C50.0391 2.70772 49.8729 2.81525 49.7947 3.04985L47.4487 5.6305L46.8622 5.21994C44.3597 3.49951 41.6813 2.19941 38.827 1.31965C35.9726 0.439884 33.0205 0 29.9707 0C25.8651 0 21.9746 0.782013 18.2991 2.34604C14.6628 3.94917 11.4858 6.09971 8.76833 8.79765C6.05083 11.4956 3.91007 14.6823 2.34604 18.3578C0.782014 21.9941 0 25.8651 0 29.9707C0 34.1153 0.782014 38.0059 2.34604 41.6422C3.91007 45.2786 6.05083 48.4555 8.76833 51.173C11.4858 53.8905 14.6628 56.0508 18.2991 57.654C21.9746 59.218 25.8651 60 29.9707 60C34.0762 60 37.9081 59.2375 41.4663 57.7126C45.0635 56.1877 48.2209 54.1056 50.9384 51.4663C53.6559 48.827 55.8162 45.7283 57.4194 42.1701C59.0225 38.651 59.8827 34.8583 60 30.7918H57.7713C57.7322 32.6686 57.4976 34.5064 57.0674 36.305C56.6373 38.1036 56.0411 39.8338 55.2786 41.4956C54.5161 43.1574 53.607 44.7312 52.5513 46.217C51.4956 47.7028 50.2835 49.0909 48.915 50.3812C47.4682 51.7107 45.9433 52.8641 44.3402 53.8416C42.6979 54.8192 40.9873 55.6305 39.2082 56.2757C37.4291 56.9208 35.6012 57.3607 33.7243 57.5953C31.8475 57.869 29.9316 57.9277 27.9765 57.7713C24.5357 57.5758 21.3099 56.7546 18.2991 55.3079C15.2884 53.9003 12.6295 52.043 10.3226 49.7361C8.01564 47.4291 6.15836 44.7703 4.75073 41.7595C3.34311 38.7097 2.52199 35.4643 2.28739 32.0235C2.13099 30.0684 2.18964 28.1525 2.46334 26.2757C2.69795 24.3597 3.13783 22.522 3.78299 20.7625C4.42815 19.0029 5.23949 17.3021 6.21701 15.6598C7.19453 14.0567 8.348 12.5318 9.67742 11.085C11.0068 9.67742 12.4536 8.4262 14.0176 7.33138C15.5816 6.23656 17.2336 5.30792 18.9736 4.54546C20.7136 3.78299 22.522 3.20626 24.3988 2.81525C26.2757 2.42424 28.172 2.22874 30.088 2.22874C32.7077 2.22874 35.2981 2.60997 37.8592 3.37243C40.4203 4.1349 42.8544 5.23949 45.1613 6.68622L46.0411 7.27273L43.3431 9.67742C43.1867 9.87292 43.1085 10.0391 43.1085 10.176C43.1085 10.3128 43.1281 10.4203 43.1672 10.4985C43.1672 10.5767 43.216 10.6843 43.3138 10.8211C43.4115 10.958 43.5973 11.0655 43.871 11.1437L52.7273 13.4311C52.9619 13.4702 53.1476 13.4506 53.2845 13.3724C53.4213 13.2942 53.5288 13.2356 53.607 13.1965C53.6461 13.1574 53.7048 13.0596 53.783 12.9032C53.8612 12.7468 53.8807 12.5513 53.8416 12.3167L51.3196 3.40176ZM11.4956 31.3783H8.44575C8.05474 31.3783 7.71261 31.2317 7.41935 30.9384C7.1261 30.6452 6.97947 30.303 6.97947 29.912C6.97947 29.521 7.1261 29.1789 7.41935 28.8856C7.71261 28.5924 8.05474 28.4457 8.44575 28.4457H11.4956C11.8866 28.4457 12.2287 28.5924 12.522 28.8856C12.8152 29.1789 12.9619 29.521 12.9619 29.912C12.9619 30.303 12.8152 30.6452 12.522 30.9384C12.2287 31.2317 11.8866 31.3783 11.4956 31.3783ZM51.6716 31.3783H48.6217C48.2307 31.3783 47.8886 31.2317 47.5953 30.9384C47.3021 30.6452 47.1554 30.303 47.1554 29.912C47.1554 29.521 47.3021 29.1789 47.5953 28.8856C47.8886 28.5924 48.2307 28.4457 48.6217 28.4457H51.6716C52.0626 28.4457 52.4047 28.5924 52.6979 28.8856C52.9912 29.1789 53.1378 29.521 53.1378 29.912C53.1378 30.303 52.9912 30.6452 52.6979 30.9384C52.4047 31.2317 52.0626 31.3783 51.6716 31.3783ZM28.6217 11.3196V8.32845C28.6217 7.89834 28.7586 7.54643 29.0323 7.27273C29.306 6.99902 29.6579 6.86217 30.088 6.86217C30.479 6.86217 30.8211 6.99902 31.1144 7.27273C31.4076 7.54643 31.5543 7.89834 31.5543 8.32845V11.3196C31.5543 11.7498 31.4076 12.1017 31.1144 12.3754C30.8211 12.6491 30.479 12.7859 30.088 12.7859C29.6579 12.7859 29.306 12.6491 29.0323 12.3754C28.7586 12.1017 28.6217 11.7498 28.6217 11.3196ZM28.6217 51.4956V48.5044C28.6217 48.0743 28.7586 47.7224 29.0323 47.4487C29.306 47.175 29.6579 47.0381 30.088 47.0381C30.479 47.0381 30.8211 47.175 31.1144 47.4487C31.4076 47.7224 31.5543 48.0743 31.5543 48.5044V51.4956C31.5543 51.9257 31.4076 52.2776 31.1144 52.5513C30.8211 52.825 30.479 52.9619 30.088 52.9619C29.6579 52.9619 29.306 52.825 29.0323 52.5513C28.7586 52.2776 28.6217 51.9257 28.6217 51.4956Z" fill="black"/>
</svg>
