<svg width="60" height="60" viewBox="0 0 60 60" fill="none" xmlns="http://www.w3.org/2000/svg">
<path d="M30 0C25.8594 0 21.9727 0.78125 18.3398 2.34375C14.707 3.94531 11.5332 6.10352 8.81836 8.81836C6.10352 11.5332 3.94531 14.707 2.34375 18.3398C0.78125 21.9727 0 25.8594 0 30C0 34.1406 0.78125 38.0273 2.34375 41.6602C3.94531 45.293 6.10352 48.4766 8.81836 51.2109C11.5332 53.9453 14.707 56.0938 18.3398 57.6562C21.9727 59.2187 25.8594 60 30 60C34.1406 60 38.0273 59.2187 41.6602 57.6562C45.293 56.0938 48.4668 53.9453 51.1816 51.2109C53.8965 48.4766 56.0547 45.293 57.6562 41.6602C59.2188 38.0273 60 34.1406 60 30C60 25.8594 59.2188 21.9727 57.6562 18.3398C56.0547 14.707 53.8965 11.5332 51.1816 8.81836C48.4668 6.10352 45.293 3.94531 41.6602 2.34375C38.0273 0.78125 34.1406 0 30 0ZM30 58.0078C26.1328 58.0078 22.5 57.2656 19.1016 55.7812C15.7031 54.3359 12.7344 52.3438 10.1953 49.8047C7.65625 47.2656 5.66406 44.2969 4.21875 40.8984C2.73438 37.5 1.99219 33.8672 1.99219 30C1.99219 26.1328 2.73438 22.5 4.21875 19.1016C5.66406 15.7031 7.65625 12.7441 10.1953 10.2246C12.7344 7.70508 15.7031 5.70312 19.1016 4.21875C22.5 2.73438 26.1328 1.99219 30 1.99219C33.8672 1.99219 37.5 2.73438 40.8984 4.21875C44.2969 5.70312 47.2656 7.70508 49.8047 10.2246C52.3438 12.7441 54.3359 15.7031 55.7812 19.1016C57.2656 22.5 58.0078 26.1328 58.0078 30C58.0078 33.8672 57.2656 37.5 55.7812 40.8984C54.3359 44.2969 52.3438 47.2656 49.8047 49.8047C47.2656 52.3438 44.2969 54.3359 40.8984 55.7812C37.5 57.2656 33.8672 58.0078 30 58.0078ZM30.9961 26.0156V15.8789C30.9961 15.6055 30.8984 15.3711 30.7031 15.1758C30.5078 14.9805 30.2734 14.8828 30 14.8828C29.7266 14.8828 29.4922 14.9805 29.2969 15.1758C29.1016 15.3711 29.0039 15.6055 29.0039 15.8789V26.0156C28.3008 26.2109 27.6953 26.5625 27.1875 27.0703C26.6797 27.5781 26.3281 28.1836 26.1328 28.8867H18.9844C18.7109 28.8867 18.4766 28.9844 18.2812 29.1797C18.0859 29.375 17.9883 29.6094 17.9883 29.8828C17.9883 30.1562 18.0859 30.3906 18.2812 30.5859C18.4766 30.7812 18.7109 30.8789 18.9844 30.8789H26.1328C26.3672 31.7383 26.8359 32.4512 27.5391 33.0176C28.2422 33.584 29.0625 33.8672 30 33.8672C31.0938 33.8672 32.0312 33.4766 32.8125 32.6953C33.5938 31.9141 33.9844 30.9766 33.9844 29.8828C33.9844 28.9453 33.7012 28.125 33.1348 27.4219C32.5684 26.7188 31.8555 26.25 30.9961 26.0156ZM30 31.875C29.4531 31.875 28.9844 31.6797 28.5938 31.2891C28.2031 30.8984 28.0078 30.4297 28.0078 29.8828C28.0078 29.3359 28.2031 28.8672 28.5938 28.4766C28.9844 28.0859 29.4531 27.8906 30 27.8906C30.5469 27.8906 31.0156 28.0859 31.4062 28.4766C31.7969 28.8672 31.9922 29.3359 31.9922 29.8828C31.9922 30.4297 31.7969 30.8984 31.4062 31.2891C31.0156 31.6797 30.5469 31.875 30 31.875ZM30 9.90234C30.2734 9.90234 30.5078 9.80469 30.7031 9.60938C30.8984 9.41406 30.9961 9.17969 30.9961 8.90625V7.91016C30.9961 7.63672 30.8984 7.40234 30.7031 7.20703C30.5078 7.01172 30.2734 6.91406 30 6.91406C29.7266 6.91406 29.4922 7.01172 29.2969 7.20703C29.1016 7.40234 29.0039 7.63672 29.0039 7.91016V8.90625C29.0039 9.17969 29.1016 9.41406 29.2969 9.60938C29.4922 9.80469 29.7266 9.90234 30 9.90234ZM30 49.8633C29.7266 49.8633 29.4922 49.9609 29.2969 50.1562C29.1016 50.3516 29.0039 50.5859 29.0039 50.8594V51.9141C29.0039 52.1875 29.1016 52.4219 29.2969 52.6172C29.4922 52.8125 29.7266 52.9102 30 52.9102C30.2734 52.9102 30.5078 52.8125 30.7031 52.6172C30.8984 52.4219 30.9961 52.1875 30.9961 51.9141V50.8594C30.9961 50.5859 30.8984 50.3516 30.7031 50.1562C30.5078 49.9609 30.2734 49.8633 30 49.8633ZM51.9727 28.8867H50.9766C50.7031 28.8867 50.4688 28.9844 50.2734 29.1797C50.0781 29.375 49.9805 29.6094 49.9805 29.8828C49.9805 30.1562 50.0781 30.3906 50.2734 30.5859C50.4688 30.7812 50.7031 30.8789 50.9766 30.8789H51.9727C52.2852 30.8789 52.5391 30.7812 52.7344 30.5859C52.9297 30.3906 53.0273 30.1562 53.0273 29.8828C53.0273 29.6094 52.9297 29.375 52.7344 29.1797C52.5391 28.9844 52.2852 28.8867 51.9727 28.8867ZM9.02344 28.8867H8.02734C7.71484 28.8867 7.46094 28.9844 7.26562 29.1797C7.07031 29.375 6.97266 29.6094 6.97266 29.8828C6.97266 30.1562 7.07031 30.3906 7.26562 30.5859C7.46094 30.7812 7.71484 30.8789 8.02734 30.8789H9.02344C9.29688 30.8789 9.53125 30.7812 9.72656 30.5859C9.92188 30.3906 10.0195 30.1562 10.0195 29.8828C10.0195 29.6094 9.92188 29.375 9.72656 29.1797C9.53125 28.9844 9.29688 28.8867 9.02344 28.8867ZM44.8242 13.6523L44.1211 14.3555C43.9258 14.5508 43.8281 14.7852 43.8281 15.0586C43.8281 15.332 43.9258 15.5664 44.1211 15.7617C44.2383 15.8398 44.3555 15.9082 44.4727 15.9668C44.5898 16.0254 44.707 16.0547 44.8242 16.0547C44.9805 16.0547 45.1172 16.0254 45.2344 15.9668C45.3516 15.9082 45.4492 15.8398 45.5273 15.7617L46.2891 15.0586C46.4844 14.8633 46.582 14.6289 46.582 14.3555C46.582 14.082 46.4844 13.8477 46.2891 13.6523C46.0938 13.457 45.8496 13.3594 45.5566 13.3594C45.2637 13.3594 45.0195 13.457 44.8242 13.6523ZM14.4727 44.0039L13.7109 44.707C13.5156 44.9414 13.418 45.1953 13.418 45.4688C13.418 45.7422 13.5156 45.9766 13.7109 46.1719C13.8281 46.25 13.9453 46.3184 14.0625 46.377C14.1797 46.4355 14.3164 46.4648 14.4727 46.4648C14.5898 46.4648 14.707 46.4355 14.8242 46.377C14.9414 46.3184 15.0586 46.25 15.1758 46.1719L15.8789 45.4688C16.0742 45.2734 16.1719 45.0293 16.1719 44.7363C16.1719 44.4434 16.0742 44.1992 15.8789 44.0039C15.6836 43.8086 15.4492 43.7109 15.1758 43.7109C14.9023 43.7109 14.668 43.8086 14.4727 44.0039ZM45.5273 44.0039C45.332 43.8086 45.0977 43.7109 44.8242 43.7109C44.5508 43.7109 44.3164 43.8086 44.1211 44.0039C43.9258 44.1992 43.8281 44.4434 43.8281 44.7363C43.8281 45.0293 43.9258 45.2734 44.1211 45.4688L44.8242 46.1719C44.9414 46.25 45.0586 46.3184 45.1758 46.377C45.293 46.4355 45.4102 46.4648 45.5273 46.4648C45.6836 46.4648 45.8203 46.4355 45.9375 46.377C46.0547 46.3184 46.1719 46.25 46.2891 46.1719C46.4844 45.9766 46.582 45.7422 46.582 45.4688C46.582 45.1953 46.4844 44.9609 46.2891 44.7656L45.5273 44.0039ZM15.1758 13.6523C14.9805 13.457 14.7363 13.3594 14.4434 13.3594C14.1504 13.3594 13.9062 13.457 13.7109 13.6523C13.5156 13.8477 13.418 14.082 13.418 14.3555C13.418 14.6289 13.5156 14.8633 13.7109 15.0586L14.4727 15.7617C14.5508 15.8398 14.6484 15.9082 14.7656 15.9668C14.8828 16.0254 15.0195 16.0547 15.1758 16.0547C15.293 16.0547 15.4102 16.0254 15.5273 15.9668C15.6445 15.9082 15.7617 15.8398 15.8789 15.7617C16.0742 15.5664 16.1719 15.332 16.1719 15.0586C16.1719 14.7852 16.0742 14.5508 15.8789 14.3555L15.1758 13.6523Z" fill="black"/>
</svg>
