<svg width="32" height="32" viewBox="0 0 32 32" fill="none" xmlns="http://www.w3.org/2000/svg">
<circle cx="15.9281" cy="15.9281" r="15.9281" fill="#C4C4C4"/>
<mask id="mask0" mask-type="alpha" maskUnits="userSpaceOnUse" x="0" y="0" width="32" height="32">
<circle cx="15.9281" cy="15.9281" r="15.9281" fill="#C4C4C4"/>
</mask>
<g mask="url(#mask0)">
<path d="M20.1812 21.4371C16.4133 25.9586 12.9594 23.3211 11.7034 21.4371C5.2979 22.9443 3.69653 28.031 3.69653 30.386C18.3915 33.7771 25.8331 31.4849 27.7171 29.915C27.7171 24.2631 22.6932 21.9081 20.1812 21.4371Z" fill="white"/>
<path d="M20.9686 13.9013C17.2009 15.3143 12.4907 14.8433 10.6067 13.9013C9.66489 14.8433 11.0784 18.1402 11.5491 18.6112C12.1771 19.7102 13.4331 22.3791 15.3167 22.3791C17.9539 23.1327 20.1834 19.5532 20.9686 17.6692C21.7221 15.4085 21.2825 14.2153 20.9686 13.9013Z" fill="white"/>
<path d="M9.34814 11.9061C9.34814 11.5185 9.97613 11.0986 10.2901 10.9371C10.2901 7.06088 13.4301 5.44587 15 5.12288V4.63837C15.3768 4.25076 16.413 4.47686 16.884 4.63837V5.12288C20.6519 5.89811 21.5939 9.32202 21.5939 10.9371C21.9707 10.9371 22.3789 11.5831 22.5359 11.9061C22.5359 12.8751 19.239 13.8442 15.471 13.8442C11.7031 13.8442 9.34814 12.3906 9.34814 11.9061Z" fill="white"/>
<rect x="7.46436" y="21.4371" width="2.82595" height="11.3038" fill="#C4C4C4"/>
<rect x="20.6521" y="21.4371" width="2.82595" height="11.3038" fill="#C4C4C4"/>
</g>
</svg>
