<svg width="134" height="112" viewBox="0 0 134 112" fill="none" xmlns="http://www.w3.org/2000/svg">
<mask id="mask0" mask-type="alpha" maskUnits="userSpaceOnUse" x="0" y="0" width="134" height="112">
<rect x="0.5" y="0.5" width="133" height="111" fill="white" stroke="#F0F1F2"/>
</mask>
<g mask="url(#mask0)">
<path d="M105.324 51.0849C104.918 51.0849 104.647 51.0849 104.24 51.0849C104.918 48.8027 105.324 46.252 105.324 43.7013C105.324 30.1424 94.083 19 80.2689 19C68.7571 19 59.006 26.7863 56.1619 37.3918C53.1824 35.6465 49.6612 34.7068 45.8691 34.7068C34.57 34.7068 22.4436 45.6022 24.8771 57.6629C24.8771 57.6629 20.4675 58.0346 18.7602 58.6313C11.9249 61.0202 7 67.5555 7 75.2492C7 84.915 14.9905 92.8355 24.8771 92.8355C29.4818 92.8355 45.3274 92.8355 62.121 92.8355V73.6383H53.7242L68.4863 50.4136L83.5193 73.6383H75.1225V92.8355C88.5303 92.8355 100.584 92.8355 105.188 92.8355C116.836 92.8355 126.316 83.4382 126.316 71.8931C126.316 60.4821 116.971 51.0849 105.324 51.0849Z" stroke="white" stroke-width="4"/>
</g>
</svg>
